<svg width="136" height="129" viewBox="0 0 136 129" fill="none" xmlns="http://www.w3.org/2000/svg">
<path d="M59.25 55.5H66.75M73.715 47.25H52.285C49.92 47.25 48 49.4665 48 52.2V91.8C48 94.5335 49.92 96.75 52.285 96.75H73.715C76.0825 96.75 78 94.5335 78 91.8V52.2C78 49.4665 76.0825 47.25 73.715 47.25Z" stroke="#C01A86" stroke-width="1.5" stroke-linecap="round" stroke-linejoin="round"/>
<circle cx="63" cy="72" r="46.5" stroke="#EFF0EF" stroke-width="7"/>
<path d="M119.001 14C120.769 14 122.464 14.7024 123.715 15.9526C124.965 17.2029 125.667 18.8986 125.667 20.6667V34C125.667 35.7681 124.965 37.4638 123.715 38.714C122.464 39.9643 120.769 40.6667 119.001 40.6667H111.127L103.191 45.4283C102.952 45.5718 102.68 45.653 102.402 45.6645C102.123 45.676 101.846 45.6175 101.596 45.4943C101.346 45.3711 101.131 45.1872 100.971 44.9593C100.81 44.7314 100.709 44.4669 100.677 44.19L100.667 44V40.6667H99.0007C97.2902 40.6667 95.6453 40.0093 94.406 38.8305C93.1667 37.6516 92.4278 36.0416 92.3423 34.3333L92.334 34V20.6667C92.334 18.8986 93.0364 17.2029 94.2866 15.9526C95.5368 14.7024 97.2325 14 99.0007 14H119.001ZM112.334 29H102.334C101.892 29 101.468 29.1756 101.155 29.4882C100.843 29.8007 100.667 30.2246 100.667 30.6667C100.667 31.1087 100.843 31.5326 101.155 31.8452C101.468 32.1577 101.892 32.3333 102.334 32.3333H112.334C112.776 32.3333 113.2 32.1577 113.512 31.8452C113.825 31.5326 114.001 31.1087 114.001 30.6667C114.001 30.2246 113.825 29.8007 113.512 29.4882C113.2 29.1756 112.776 29 112.334 29ZM115.667 22.3333H102.334C101.892 22.3333 101.468 22.5089 101.155 22.8215C100.843 23.1341 100.667 23.558 100.667 24C100.667 24.442 100.843 24.866 101.155 25.1785C101.468 25.4911 101.892 25.6667 102.334 25.6667H115.667C116.109 25.6667 116.533 25.4911 116.846 25.1785C117.158 24.866 117.334 24.442 117.334 24C117.334 23.558 117.158 23.1341 116.846 22.8215C116.533 22.5089 116.109 22.3333 115.667 22.3333Z" fill="#028CCC"/>
</svg>
