<svg width="293" height="292" viewBox="0 0 293 292" fill="none" xmlns="http://www.w3.org/2000/svg">
<path d="M83.6725 2.30615H4.2207V137.195H83.6725V2.30615Z" fill="#E0E0E0"/>
<path d="M81.028 2.30615H1.57617V137.195H81.028V2.30615Z" fill="#EBEBEB"/>
<path d="M77.6469 5.03955H4.96484V134.455H77.6469V5.03955Z" fill="#FAFAFA"/>
<path d="M63.4877 21.854H18.7969V117.634H63.4877V21.854Z" fill="#EBEBEB"/>
<path d="M18.7959 83.7449C18.6917 74.7964 26.5365 66.0618 35.1763 64.8121C39.2942 64.2173 43.6466 65.0527 47.5234 63.4354C54.3909 60.5484 56.5802 51.1856 63.4933 48.4055L63.8061 117.641H18.7959V83.7449Z" fill="#E0E0E0"/>
<path d="M258.215 39.8398L251.693 39.876L251.869 73.1565L258.391 73.1203L258.215 39.8398Z" fill="#E0E0E0"/>
<path d="M212.091 39.9224L195.203 40.0161L195.3 58.3872L212.188 58.2935L212.091 39.9224Z" fill="#EBEBEB"/>
<path d="M228.902 39.836L212.014 39.9297L212.111 58.3008L228.999 58.2071L228.902 39.836Z" fill="#F5F5F5"/>
<path d="M195.229 45.1105C206.449 45.204 217.701 45.1105 228.921 44.9501C228.963 44.9419 229 44.9191 229.027 44.8855C229.054 44.852 229.069 44.8098 229.069 44.7663C229.069 44.7228 229.054 44.6806 229.027 44.6471C229 44.6135 228.963 44.5907 228.921 44.5825C217.697 44.5157 206.466 44.5847 195.229 44.7897C195.187 44.7897 195.147 44.8066 195.118 44.8367C195.089 44.8667 195.072 44.9075 195.072 44.9501C195.072 44.9926 195.089 45.0334 195.118 45.0635C195.147 45.0936 195.187 45.1105 195.229 45.1105Z" fill="#E0E0E0"/>
<path d="M215.361 57.9948L184.68 58.165L184.759 73.1346L215.44 72.9643L215.361 57.9948Z" fill="#EBEBEB"/>
<path d="M245.891 57.8253L215.209 57.9956L215.288 72.9652L245.97 72.7949L245.891 57.8253Z" fill="#F5F5F5"/>
<path d="M184.691 62.3388C205.072 62.5794 225.525 62.3388 245.906 62.0314C245.947 62.0232 245.985 62.0003 246.012 61.9668C246.039 61.9333 246.054 61.8911 246.054 61.8476C246.054 61.8041 246.039 61.7619 246.012 61.7284C245.985 61.6948 245.947 61.672 245.906 61.6638C225.525 61.5502 205.072 61.5636 184.691 62.0247C184.656 62.0322 184.624 62.0519 184.602 62.0805C184.579 62.1091 184.566 62.1448 184.566 62.1817C184.566 62.2186 184.579 62.2544 184.602 62.283C184.624 62.3116 184.656 62.3313 184.691 62.3388Z" fill="#E0E0E0"/>
<path d="M292.082 73.1453H173.217V78.5117H292.082V73.1453Z" fill="#E0E0E0"/>
<path d="M197.508 75.7251H192.68V94.0297H197.508V75.7251Z" fill="#E0E0E0"/>
<path d="M269.539 75.7251H264.711V94.0297H269.539V75.7251Z" fill="#E0E0E0"/>
<path d="M264.581 27.4272L258.059 27.4634L258.3 73.2341L264.822 73.1979L264.581 27.4272Z" fill="#EBEBEB"/>
<path d="M274.77 35.9518L264.639 36.0081L264.834 73.0978L274.966 73.0416L274.77 35.9518Z" fill="#F5F5F5"/>
<path d="M274.692 43.1121C271.319 43.3527 267.934 43.3527 264.561 43.1121C267.934 42.8715 271.319 42.8715 274.692 43.1121Z" fill="#E0E0E0"/>
<path d="M274.692 41.5552C271.319 41.7958 267.934 41.7958 264.561 41.5552C267.934 41.3146 271.319 41.3146 274.692 41.5552Z" fill="#E0E0E0"/>
<path d="M274.692 67.4522C271.319 67.6928 267.934 67.6928 264.561 67.4522C267.934 67.2116 271.319 67.2116 274.692 67.4522Z" fill="#E0E0E0"/>
<path d="M274.692 65.9212C271.319 66.1528 267.934 66.1528 264.561 65.9212C267.934 65.6806 271.319 65.6806 274.692 65.9212Z" fill="#E0E0E0"/>
<path d="M269.793 62.519C269.695 62.519 269.617 58.7765 269.617 54.1586C269.617 49.5407 269.695 45.8049 269.793 45.8049C269.891 45.8049 269.969 49.5407 269.969 54.1586C269.969 58.7765 269.878 62.519 269.793 62.519Z" fill="#E0E0E0"/>
<path d="M285.834 45.0698H274.803V73.0646H285.834V45.0698Z" fill="#EBEBEB"/>
<path d="M263.095 35.2594C263.101 35.6415 262.996 36.0168 262.794 36.3377C262.592 36.6586 262.301 36.9105 261.959 37.0613C261.617 37.2121 261.238 37.255 260.872 37.1845C260.506 37.1141 260.169 36.9335 259.903 36.6657C259.637 36.3979 259.455 36.055 259.38 35.6808C259.305 35.3066 259.34 34.9179 259.481 34.5642C259.622 34.2106 259.863 33.908 260.172 33.695C260.481 33.482 260.845 33.3682 261.218 33.3682C261.711 33.3664 262.184 33.564 262.535 33.9181C262.887 34.2722 263.088 34.7542 263.095 35.2594Z" fill="#E0E0E0"/>
<path d="M261.798 40.5452H260.639V67.7714H261.798V40.5452Z" fill="#E0E0E0"/>
<path d="M95.1211 252.969C95.1211 252.969 89.1462 257.647 94.867 263.802C94.9158 263.855 94.9745 263.896 95.0394 263.925C95.1043 263.954 95.1742 263.969 95.2449 263.969L147.442 263.655C147.442 263.655 151.898 258.529 148.198 252.622L95.1211 252.969Z" fill="#EBEBEB"/>
<path d="M135.902 257.841C135.902 257.901 129.387 257.948 121.392 257.948C113.397 257.948 106.875 257.901 106.875 257.841C106.875 257.781 113.391 257.734 121.392 257.734C129.393 257.734 135.902 257.781 135.902 257.841Z" fill="#E0E0E0"/>
<path d="M127.784 259.78C127.784 259.84 124.735 259.887 120.963 259.887C117.19 259.887 114.141 259.84 114.141 259.78C114.141 259.72 117.196 259.667 120.963 259.667C124.729 259.667 127.784 259.72 127.784 259.78Z" fill="#E0E0E0"/>
<path d="M141.239 263.482C141.239 263.482 141.356 262.868 141.519 261.879C141.728 260.589 141.828 259.283 141.819 257.976C141.806 256.666 141.682 255.36 141.447 254.073C141.265 253.084 141.108 252.482 141.141 252.469C141.205 252.601 141.255 252.74 141.291 252.883C141.413 253.262 141.513 253.648 141.591 254.039C141.87 255.33 142.019 256.647 142.034 257.969C142.041 259.291 141.917 260.61 141.662 261.905C141.565 262.4 141.467 262.801 141.389 263.068C141.31 263.335 141.258 263.489 141.239 263.482Z" fill="#E0E0E0"/>
<path d="M145.135 252.568C145.231 252.685 145.31 252.816 145.37 252.956C145.456 253.112 145.534 253.273 145.604 253.437C145.703 253.655 145.79 253.878 145.865 254.105C146.078 254.681 146.246 255.273 146.367 255.876C146.503 256.619 146.579 257.372 146.595 258.128C146.593 258.886 146.528 259.641 146.399 260.387C146.29 260.994 146.134 261.591 145.93 262.171C145.852 262.425 145.754 262.639 145.676 262.84C145.61 263.005 145.534 263.166 145.448 263.321C145.39 263.461 145.316 263.594 145.226 263.715C145.187 263.715 145.48 263.12 145.793 262.131C146.196 260.835 146.394 259.482 146.38 258.122C146.371 257.377 146.301 256.635 146.171 255.903C146.063 255.305 145.915 254.715 145.728 254.139C145.428 253.143 145.102 252.568 145.135 252.568Z" fill="#E0E0E0"/>
<path d="M103.356 263.555C103.26 263.446 103.176 263.324 103.108 263.194C103.019 263.053 102.939 262.905 102.867 262.753C102.764 262.553 102.671 262.348 102.587 262.138C102.366 261.592 102.196 261.026 102.079 260.448C101.942 259.737 101.874 259.014 101.877 258.289C101.893 257.564 101.98 256.843 102.138 256.137C102.269 255.563 102.455 255.004 102.691 254.466C102.777 254.258 102.875 254.055 102.985 253.858C103.057 253.704 103.142 253.557 103.239 253.417C103.389 253.183 103.48 253.056 103.493 253.07C103.506 253.083 103.193 253.604 102.841 254.526C102.629 255.063 102.461 255.618 102.34 256.184C102.198 256.879 102.118 257.586 102.099 258.296C102.1 259.004 102.161 259.71 102.281 260.407C102.392 260.975 102.544 261.534 102.737 262.078C103.076 263.007 103.389 263.535 103.356 263.555Z" fill="#E0E0E0"/>
<path d="M97.7209 264.859C97.6129 264.74 97.5229 264.605 97.4538 264.458C97.3602 264.289 97.2796 264.112 97.2127 263.93C97.0943 263.714 96.9877 263.49 96.8934 263.262C96.6419 262.651 96.4435 262.018 96.3005 261.371C95.9361 259.783 95.9005 258.135 96.1962 256.532C96.3111 255.878 96.4834 255.236 96.711 254.614C96.7957 254.347 96.9065 254.12 96.9912 253.912C97.0664 253.736 97.1513 253.564 97.2453 253.398C97.3142 253.25 97.3971 253.109 97.4929 252.977C97.5319 252.977 97.1996 253.612 96.8413 254.668C96.6395 255.287 96.4849 255.922 96.3787 256.566C96.2564 257.354 96.1998 258.153 96.2093 258.951C96.2433 260.407 96.5188 261.847 97.0237 263.208C97.3951 264.244 97.7535 264.839 97.7209 264.859Z" fill="#E0E0E0"/>
<path d="M145.527 279.969V290.207H126.201V279.969H145.527Z" fill="#EBEBEB"/>
<path d="M83.1068 285.176C83.1068 285.269 83.1068 285.356 83.1068 285.45C83.2 286.945 83.8471 288.347 84.9156 289.368C85.9841 290.389 87.3931 290.953 88.8536 290.943H146.413V290.201H132.73C131.406 290.201 130.137 289.662 129.201 288.702C128.265 287.742 127.739 286.44 127.739 285.082C127.739 283.724 128.265 282.422 129.201 281.462C130.137 280.502 131.406 279.963 132.73 279.963H146.413V278.874L88.8406 279.074C88.07 279.076 87.3076 279.237 86.5988 279.547C85.8901 279.858 85.2492 280.311 84.7144 280.88C84.1796 281.449 83.7618 282.122 83.4856 282.86C83.2095 283.598 83.0807 284.386 83.1068 285.176Z" fill="#E0E0E0"/>
<path d="M145.526 285.215C145.526 285.275 141.551 285.329 136.652 285.329C131.752 285.329 127.777 285.275 127.777 285.215C127.777 285.155 131.752 285.108 136.652 285.108C141.551 285.108 145.526 285.162 145.526 285.215Z" fill="#E0E0E0"/>
<path d="M145.247 287.527C145.247 287.587 141.487 287.634 136.848 287.634C132.209 287.634 128.449 287.587 128.449 287.527C128.449 287.467 132.209 287.42 136.848 287.42C141.487 287.42 145.247 287.467 145.247 287.527Z" fill="#E0E0E0"/>
<path d="M145.527 289.639C145.527 289.699 142.145 289.746 137.975 289.746C133.805 289.746 130.424 289.699 130.424 289.639C130.424 289.579 133.805 289.532 137.975 289.532C142.145 289.532 145.527 289.579 145.527 289.639Z" fill="#E0E0E0"/>
<path d="M145.526 283.143C145.526 283.203 141.617 283.25 136.834 283.25C132.052 283.25 128.143 283.203 128.143 283.143C128.143 283.083 132.052 283.036 136.834 283.036C141.617 283.036 145.526 283.083 145.526 283.143Z" fill="#E0E0E0"/>
<path d="M145.246 281.072C145.246 281.132 141.78 281.178 137.512 281.178C133.244 281.178 129.771 281.132 129.771 281.072C129.771 281.011 133.238 280.965 137.512 280.965C141.786 280.965 145.246 281.011 145.246 281.072Z" fill="#E0E0E0"/>
<path d="M90.0845 279.241C89.6374 279.703 89.2277 280.201 88.8595 280.731C87.9858 282.025 87.5259 283.565 87.5434 285.138C87.5609 286.711 88.055 288.24 88.9573 289.513C89.3406 290.032 89.761 290.521 90.2148 290.976C90.0669 290.888 89.9292 290.782 89.8043 290.662C89.4475 290.346 89.1242 289.992 88.84 289.606C87.8815 288.323 87.354 286.755 87.3364 285.139C87.3188 283.522 87.812 281.943 88.7423 280.638C89.0159 280.245 89.3305 279.884 89.6805 279.562C89.8009 279.437 89.9367 279.329 90.0845 279.241Z" fill="#F5F5F5"/>
<path d="M88.137 279.02C87.6956 279.489 87.2863 279.989 86.912 280.517C86.0416 281.81 85.5842 283.349 85.6029 284.921C85.6216 286.493 86.1154 288.02 87.0163 289.291C87.3973 289.812 87.8178 290.302 88.2738 290.755C88.1218 290.67 87.9816 290.564 87.8568 290.441C87.5 290.125 87.1768 289.771 86.8925 289.385C85.9341 288.104 85.406 286.54 85.3872 284.925C85.3684 283.311 85.86 281.734 86.7882 280.43C87.0621 280.035 87.3767 279.672 87.7265 279.347C87.8502 279.222 87.988 279.112 88.137 279.02Z" fill="#F5F5F5"/>
<path d="M127.244 279.241C126.802 279.706 126.395 280.204 126.025 280.731C125.152 282.025 124.692 283.565 124.709 285.138C124.727 286.711 125.221 288.24 126.123 289.513C126.506 290.032 126.927 290.521 127.381 290.976C127.23 290.889 127.09 290.784 126.964 290.662C126.609 290.346 126.288 289.992 126.006 289.606C125.043 288.326 124.511 286.76 124.489 285.143C124.467 283.526 124.955 281.946 125.882 280.638C126.154 280.244 126.468 279.883 126.82 279.562C126.949 279.439 127.091 279.331 127.244 279.241Z" fill="#F5F5F5"/>
<path d="M125.301 279.02C124.855 279.485 124.446 279.986 124.076 280.517C123.202 281.809 122.742 283.348 122.759 284.92C122.777 286.493 123.271 288.02 124.174 289.291C124.557 289.81 124.978 290.3 125.431 290.755C125.283 290.667 125.146 290.561 125.021 290.441C124.662 290.127 124.339 289.772 124.057 289.385C123.098 288.104 122.57 286.54 122.551 284.925C122.533 283.311 123.024 281.734 123.952 280.43C124.226 280.035 124.541 279.672 124.891 279.347C125.013 279.22 125.151 279.11 125.301 279.02Z" fill="#F5F5F5"/>
<path d="M96.6335 286.651L96.5749 282.481C96.5955 282.119 96.5491 281.756 96.4381 281.412C96.3788 281.24 96.2757 281.087 96.1393 280.969C96.0029 280.852 95.8384 280.774 95.6627 280.744C95.1545 280.51 94.3596 280.944 94.0077 281.546C93.6959 282.177 93.5585 282.884 93.6103 283.591C93.5972 284.689 93.6494 285.787 93.7667 286.879C93.7886 287.403 93.9173 287.918 94.1446 288.389C94.2459 288.632 94.4197 288.837 94.6411 288.973C94.8625 289.11 95.1203 289.171 95.3776 289.148C95.6348 289.125 95.8784 289.019 96.0736 288.845C96.2687 288.672 96.4054 288.44 96.4641 288.182C96.6152 287.687 96.6727 287.168 96.6335 286.651Z" fill="#F5F5F5"/>
<path d="M118.988 285.416C118.988 285.476 114.824 285.53 109.696 285.53C104.568 285.53 100.398 285.476 100.398 285.416C100.398 285.356 104.562 285.309 109.696 285.309C114.831 285.309 118.988 285.356 118.988 285.416Z" fill="#F5F5F5"/>
<path d="M92.7761 278.832L92.6719 269.122H97.8258L98.0017 278.832H92.7761Z" fill="#F5F5F5"/>
<path d="M97.5195 270.846C96.7252 270.958 95.9227 270.996 95.1217 270.96C94.3229 270.996 93.5226 270.958 92.7305 270.846C93.523 270.739 94.3231 270.703 95.1217 270.739C95.9225 270.703 96.7248 270.739 97.5195 270.846Z" fill="#E0E0E0"/>
<path d="M97.5195 272.35C96.7248 272.458 95.9225 272.493 95.1217 272.457C94.3231 272.493 93.523 272.458 92.7305 272.35C93.523 272.243 94.3231 272.207 95.1217 272.244C95.9225 272.208 96.7248 272.243 97.5195 272.35Z" fill="#E0E0E0"/>
<path d="M97.5195 273.848C96.7248 273.955 95.9225 273.991 95.1217 273.954C94.3231 273.991 93.523 273.955 92.7305 273.848C93.523 273.74 94.3231 273.705 95.1217 273.741C95.9225 273.705 96.7248 273.74 97.5195 273.848Z" fill="#E0E0E0"/>
<path d="M97.5195 275.344C96.7248 275.452 95.9225 275.487 95.1217 275.451C94.3231 275.487 93.523 275.452 92.7305 275.344C93.523 275.237 94.3231 275.201 95.1217 275.237C95.9225 275.201 96.7248 275.237 97.5195 275.344Z" fill="#E0E0E0"/>
<path d="M97.5195 276.841C96.7252 276.953 95.9227 276.991 95.1217 276.955C94.3229 276.991 93.5226 276.953 92.7305 276.841C93.5233 276.738 94.3231 276.702 95.1217 276.734C95.9225 276.702 96.7244 276.738 97.5195 276.841Z" fill="#E0E0E0"/>
<path d="M92.3984 268.862H149.515C150.17 272.33 150.17 275.894 149.515 279.361H92.6525V278.633H96.1319C96.3472 278.633 96.5604 278.589 96.7593 278.504C96.9581 278.42 97.1387 278.296 97.2906 278.139C97.4426 277.983 97.5629 277.797 97.6447 277.593C97.7265 277.388 97.7682 277.17 97.7673 276.949V271.141C97.7682 270.92 97.7265 270.701 97.6447 270.497C97.5629 270.293 97.4426 270.107 97.2906 269.951C97.1387 269.794 96.9581 269.67 96.7593 269.585C96.5604 269.501 96.3472 269.457 96.1319 269.457H92.4115L92.3984 268.862Z" fill="#EBEBEB"/>
<path d="M105.899 274.121H106.85C106.884 274.111 106.92 274.111 106.954 274.121C106.986 274.138 107.014 274.164 107.032 274.196C107.051 274.228 107.06 274.264 107.058 274.302C107.062 274.324 107.062 274.346 107.058 274.368C107.058 274.449 107.019 274.529 106.993 274.616C106.879 275.026 106.674 275.403 106.394 275.718C106.296 275.845 106.174 275.948 106.034 276.023C105.895 276.098 105.743 276.142 105.586 276.153H105.468C105.332 276.127 105.203 276.071 105.09 275.987C104.977 275.904 104.884 275.796 104.817 275.672C104.618 275.314 104.521 274.907 104.537 274.495C104.539 274.211 104.576 273.928 104.648 273.653C104.752 273.238 104.946 272.852 105.214 272.524C105.315 272.386 105.445 272.272 105.593 272.191C105.742 272.11 105.906 272.064 106.074 272.056C106.198 272.056 106.32 272.083 106.433 272.136C106.703 272.291 106.904 272.548 106.993 272.851C106.999 272.885 106.999 272.919 106.993 272.952C107.002 272.984 107.002 273.019 106.993 273.052C106.976 273.084 106.95 273.111 106.919 273.13C106.888 273.149 106.853 273.159 106.817 273.159C106.796 273.166 106.773 273.166 106.752 273.159C106.722 273.15 106.694 273.134 106.671 273.112C106.648 273.09 106.631 273.062 106.622 273.032C106.593 272.949 106.554 272.87 106.504 272.798C106.457 272.716 106.391 272.649 106.311 272.601C106.231 272.553 106.141 272.526 106.048 272.524C105.935 272.525 105.825 272.565 105.736 272.638C105.496 272.84 105.316 273.106 105.214 273.406C105.071 273.755 104.995 274.13 104.993 274.509C104.983 274.807 105.039 275.104 105.156 275.378C105.191 275.485 105.257 275.579 105.346 275.647C105.434 275.715 105.541 275.754 105.651 275.759C105.744 275.747 105.833 275.716 105.913 275.666C105.992 275.617 106.061 275.55 106.114 275.471C106.332 275.206 106.498 274.899 106.602 274.569C106.166 274.569 105.951 274.569 105.918 274.569C105.858 274.569 105.8 274.544 105.757 274.5C105.714 274.457 105.69 274.397 105.69 274.335V274.262C105.708 274.22 105.737 274.184 105.774 274.16C105.811 274.135 105.854 274.121 105.899 274.121Z" fill="#FAFAFA"/>
<path d="M109.143 272.21C109.143 272.21 109.143 272.257 109.143 272.283C109.182 272.421 109.399 273.631 109.794 275.912C109.798 275.93 109.798 275.948 109.794 275.966C109.803 276.001 109.803 276.038 109.794 276.073C109.779 276.105 109.755 276.133 109.725 276.152C109.695 276.171 109.66 276.18 109.625 276.179H109.592C109.555 276.173 109.521 276.156 109.493 276.13C109.465 276.104 109.446 276.07 109.436 276.032L109.208 274.823H108.035L107.468 276.039C107.473 276.052 107.473 276.066 107.468 276.079C107.449 276.109 107.423 276.134 107.392 276.151C107.362 276.168 107.327 276.178 107.292 276.179C107.253 276.179 107.215 276.167 107.182 276.146C107.153 276.126 107.13 276.099 107.115 276.067C107.099 276.036 107.09 276.001 107.09 275.966C107.084 275.946 107.084 275.925 107.09 275.906C107.123 275.819 107.182 275.692 107.266 275.511C108.087 273.667 108.569 272.584 108.739 272.25C108.755 272.209 108.781 272.174 108.816 272.148C108.851 272.122 108.892 272.106 108.934 272.103C108.975 272.101 109.016 272.109 109.052 272.128C109.089 272.147 109.12 272.175 109.143 272.21ZM108.889 273.025L108.237 274.395H109.136L108.889 273.025Z" fill="#FAFAFA"/>
<path d="M112.329 276.18H110.609C110.57 276.179 110.532 276.168 110.498 276.147C110.468 276.119 110.444 276.085 110.428 276.047C110.411 276.009 110.402 275.968 110.4 275.926C110.4 275.86 110.557 274.65 110.876 272.318C110.873 272.291 110.873 272.264 110.876 272.237C110.89 272.198 110.916 272.165 110.95 272.142C110.984 272.119 111.024 272.108 111.065 272.11C111.095 272.103 111.126 272.103 111.156 272.11C111.19 272.127 111.219 272.154 111.239 272.187C111.258 272.22 111.268 272.259 111.267 272.298L111.156 273.287C110.961 274.833 110.856 275.648 110.843 275.733H112.309C112.346 275.726 112.384 275.726 112.42 275.733C112.46 275.748 112.493 275.775 112.517 275.811C112.54 275.847 112.552 275.89 112.551 275.933C112.554 275.955 112.554 275.978 112.551 276C112.538 276.051 112.509 276.096 112.469 276.128C112.429 276.161 112.38 276.179 112.329 276.18Z" fill="#FAFAFA"/>
<path d="M114.682 272.209C114.682 272.209 114.682 272.256 114.682 272.283C114.721 272.423 114.949 273.62 115.334 275.912C115.337 275.929 115.337 275.948 115.334 275.965C115.332 276.003 115.321 276.04 115.301 276.072C115.286 276.105 115.262 276.132 115.232 276.151C115.202 276.17 115.167 276.18 115.132 276.179H115.099C115.063 276.171 115.029 276.153 115.001 276.128C114.974 276.102 114.954 276.069 114.943 276.032L114.806 274.822H113.633L113.066 276.039C113.069 276.052 113.069 276.066 113.066 276.079C113.045 276.108 113.017 276.132 112.986 276.149C112.954 276.167 112.92 276.177 112.884 276.179C112.845 276.177 112.807 276.166 112.773 276.146C112.745 276.125 112.722 276.098 112.706 276.067C112.69 276.035 112.682 276.001 112.682 275.965C112.679 275.945 112.679 275.925 112.682 275.905C112.715 275.818 112.773 275.691 112.858 275.511C113.679 273.666 114.161 272.584 114.33 272.25C114.346 272.209 114.373 272.173 114.408 272.147C114.442 272.121 114.483 272.106 114.526 272.103C114.558 272.108 114.588 272.121 114.615 272.139C114.642 272.158 114.665 272.182 114.682 272.209ZM114.428 273.025L113.777 274.395H114.676L114.428 273.025Z" fill="#FAFAFA"/>
<path d="M117.411 274.294L117.724 275.177C117.9 275.684 117.991 275.945 117.991 275.972C118.001 276.007 118.001 276.044 117.991 276.079C117.972 276.109 117.946 276.135 117.916 276.152C117.885 276.17 117.85 276.179 117.815 276.179C117.737 276.179 117.685 276.132 117.646 276.039C117.607 275.945 117.646 275.972 117.613 275.945C117.522 275.725 117.365 275.277 117.15 274.702L116.18 276.039C116.16 276.071 116.133 276.098 116.102 276.118C116.07 276.138 116.034 276.15 115.997 276.152C115.963 276.159 115.927 276.159 115.893 276.152C115.862 276.135 115.836 276.108 115.819 276.077C115.801 276.045 115.793 276.008 115.795 275.972V275.958C115.818 275.894 115.853 275.834 115.899 275.785C116.225 275.35 116.551 274.836 116.981 274.241C116.942 274.121 116.903 274.014 116.864 273.907C116.499 272.898 116.31 272.376 116.31 272.343C116.304 272.308 116.304 272.271 116.31 272.236C116.326 272.204 116.351 272.178 116.38 272.159C116.41 272.14 116.444 272.13 116.479 272.129C116.519 272.13 116.557 272.141 116.59 272.162C116.623 272.183 116.65 272.214 116.668 272.249L117.248 273.84L118.395 272.236C118.415 272.205 118.442 272.179 118.474 272.162C118.506 272.144 118.541 272.135 118.577 272.136C118.607 272.129 118.639 272.129 118.669 272.136C118.702 272.153 118.73 272.18 118.748 272.213C118.767 272.246 118.775 272.285 118.773 272.323C118.782 272.356 118.782 272.39 118.773 272.423L117.411 274.294Z" fill="#FAFAFA"/>
<path d="M121.685 272.116C121.715 272.109 121.746 272.109 121.776 272.116C121.81 272.132 121.838 272.157 121.858 272.189C121.878 272.221 121.888 272.258 121.887 272.296C121.607 274.582 121.451 275.811 121.425 275.999C121.376 276.345 121.249 276.674 121.053 276.961C120.868 277.229 120.595 277.419 120.284 277.498C119.973 277.576 119.645 277.538 119.359 277.389C119.103 277.281 118.89 277.088 118.753 276.841C118.747 276.808 118.747 276.774 118.753 276.74C118.744 276.705 118.744 276.668 118.753 276.634C118.769 276.6 118.795 276.572 118.826 276.554C118.857 276.535 118.893 276.525 118.929 276.527C118.96 276.529 118.989 276.538 119.016 276.553C119.043 276.568 119.067 276.588 119.085 276.613C119.181 276.765 119.311 276.891 119.464 276.981C119.617 277.07 119.789 277.121 119.965 277.128C120.092 277.122 120.217 277.087 120.329 277.026C120.442 276.964 120.54 276.878 120.617 276.774C120.851 276.453 120.983 276.065 120.995 275.664C120.929 275.773 120.843 275.866 120.74 275.938C120.564 276.075 120.349 276.148 120.128 276.146H120.011C119.874 276.121 119.744 276.065 119.631 275.981C119.519 275.898 119.426 275.79 119.359 275.664C119.156 275.309 119.056 274.9 119.072 274.488C119.072 274.274 119.072 274.054 119.072 273.82C119.103 273.459 119.181 272.951 119.307 272.296C119.301 272.277 119.301 272.256 119.307 272.236C119.317 272.194 119.341 272.157 119.374 272.131C119.407 272.104 119.447 272.089 119.489 272.089C119.524 272.091 119.558 272.103 119.587 272.123C119.619 272.137 119.645 272.16 119.664 272.19C119.682 272.22 119.692 272.254 119.691 272.29C119.673 272.559 119.64 272.826 119.594 273.092C119.526 273.501 119.483 273.913 119.463 274.328C119.451 274.653 119.502 274.978 119.613 275.284C119.731 275.571 119.9 275.711 120.121 275.711H120.193C120.41 275.641 120.593 275.491 120.708 275.29C120.914 274.999 121.058 274.666 121.131 274.315L121.392 272.31C121.388 272.281 121.388 272.252 121.392 272.223C121.4 272.192 121.415 272.165 121.436 272.141C121.456 272.118 121.482 272.101 121.511 272.09C121.54 272.08 121.571 272.077 121.601 272.081C121.632 272.086 121.66 272.097 121.685 272.116Z" fill="#FAFAFA"/>
<path d="M147.384 279.494C147.326 279.494 147.273 277.088 147.273 274.114C147.273 271.14 147.326 268.728 147.384 268.728C147.443 268.728 147.488 271.14 147.488 274.114C147.488 277.088 147.43 279.494 147.384 279.494Z" fill="#F5F5F5"/>
<path d="M100.628 279.494C100.569 279.494 100.523 277.088 100.523 274.114C100.523 271.14 100.569 268.728 100.628 268.728C100.686 268.728 100.732 271.14 100.732 274.114C100.732 277.088 100.686 279.494 100.628 279.494Z" fill="#E0E0E0"/>
<path d="M148.368 279.494C148.316 279.494 148.264 277.088 148.264 274.114C148.264 271.14 148.316 268.728 148.368 268.728C148.42 268.728 148.479 271.14 148.479 274.114C148.479 277.088 148.427 279.494 148.368 279.494Z" fill="#F5F5F5"/>
<path d="M99.6947 279.494C99.6361 279.494 99.584 277.088 99.584 274.114C99.584 271.14 99.6361 268.728 99.6947 268.728C99.7534 268.728 99.799 271.14 99.799 274.114C99.799 277.088 99.7469 279.494 99.6947 279.494Z" fill="#E0E0E0"/>
<path d="M133.517 270.499L139.551 275.491L139.603 275.538H139.538L138.736 275.759L133.641 277.129L129.022 275.124L127.718 274.549L127.373 274.395L127.288 274.355L127.38 274.395L127.725 274.536L129.028 275.097L133.654 277.102L138.749 275.725L139.557 275.505V275.565L133.53 270.559" fill="#E0E0E0"/>
<path d="M138.997 274.702L139.329 275.016L139.772 274.923L139.577 275.337L139.805 275.738L139.355 275.685L139.056 276.025L138.971 275.571L138.561 275.384L138.951 275.163L138.997 274.702Z" fill="#E0E0E0"/>
<path d="M133.212 276.667L133.433 276.861L133.72 276.781L133.609 277.062L133.772 277.309L133.479 277.289L133.297 277.523L133.225 277.235L132.951 277.128L133.199 276.968L133.212 276.667Z" fill="#E0E0E0"/>
<path d="M126.814 273.981L127.173 274.001L127.394 273.714L127.486 274.068L127.824 274.195L127.518 274.389L127.505 274.763L127.225 274.529L126.886 274.629L127.016 274.282L126.814 273.981Z" fill="#E0E0E0"/>
<path d="M141.709 270.579L142.067 270.606L142.289 270.312L142.38 270.673L142.712 270.8L142.413 270.994L142.4 271.361L142.119 271.127L141.774 271.228L141.911 270.887L141.709 270.579Z" fill="#E0E0E0"/>
<path d="M133.225 270.339L133.453 270.352L133.596 270.172L133.655 270.399L133.87 270.479L133.674 270.606L133.668 270.84L133.492 270.686L133.27 270.753L133.355 270.533L133.225 270.339Z" fill="#E0E0E0"/>
<path d="M142.21 270.84C142.21 270.84 140.255 270.793 137.851 270.693C135.447 270.593 133.492 270.479 133.492 270.452C133.492 270.426 135.447 270.499 137.851 270.606C140.255 270.713 142.21 270.813 142.21 270.84Z" fill="#E0E0E0"/>
<path d="M144.406 268.774H86.4756C85.7198 267.01 85.5308 265.333 86.4756 263.829H144.406C144.766 264.601 144.952 265.446 144.952 266.302C144.952 267.157 144.766 268.002 144.406 268.774Z" fill="#E0E0E0"/>
<path d="M129.857 265.24H98.4707V267.038H129.857V265.24Z" fill="#EBEBEB"/>
<path d="M88.6958 268.802C88.5045 268.636 88.3491 268.431 88.2397 268.2C87.9444 267.661 87.7644 267.063 87.7116 266.447C87.6588 265.83 87.7345 265.209 87.9335 264.625C87.9981 264.377 88.1186 264.148 88.2853 263.957C88.2283 264.201 88.1587 264.442 88.0768 264.679C87.9254 265.251 87.8724 265.845 87.9205 266.436C87.9772 267.026 88.1291 267.602 88.37 268.14C88.4977 268.35 88.6067 268.572 88.6958 268.802Z" fill="#E0E0E0"/>
<path d="M89.9552 268.802C89.7595 268.641 89.6034 268.435 89.4991 268.2C89.2 267.663 89.0178 267.066 88.9648 266.45C88.9135 265.832 88.989 265.211 89.1864 264.625C89.2572 264.38 89.377 264.152 89.5382 263.957C89.485 264.202 89.4153 264.443 89.3297 264.679C89.1807 265.251 89.13 265.846 89.1799 266.436C89.2302 267.027 89.3825 267.604 89.6294 268.14C89.7507 268.354 89.8595 268.575 89.9552 268.802Z" fill="#E0E0E0"/>
<path d="M142.061 268.682C142.292 267.898 142.43 267.087 142.471 266.269C142.437 265.448 142.308 264.633 142.087 263.843C142.512 264.575 142.718 265.418 142.68 266.269C142.713 267.119 142.497 267.959 142.061 268.682Z" fill="#F5F5F5"/>
<path d="M140.985 268.674C140.92 268.674 141.161 267.612 141.154 266.302C141.148 264.992 140.913 263.949 140.978 263.936C141.495 265.471 141.495 267.139 140.978 268.674H140.985Z" fill="#F5F5F5"/>
<path d="M177.518 245.725L96.1184 245.671C93.791 245.67 91.4866 245.199 89.3368 244.285C87.1869 243.371 85.2336 242.031 83.5886 240.343C81.9435 238.654 80.6388 236.65 79.7489 234.444C78.8591 232.238 78.4015 229.874 78.4023 227.487L78.4414 18.1843C78.4423 15.7954 78.9019 13.4301 79.794 11.2234C80.6861 9.01671 81.9932 7.01185 83.6407 5.32328C85.2882 3.63471 87.2438 2.29552 89.3959 1.38215C91.548 0.468778 93.8545 -0.000876549 96.1835 1.22814e-06L177.577 0.0534659C182.277 0.0570079 186.784 1.97419 190.107 5.38383C193.43 8.79347 195.298 13.4167 195.3 18.2377L195.254 227.541C195.254 229.929 194.795 232.294 193.904 234.501C193.012 236.708 191.706 238.712 190.059 240.401C188.412 242.09 186.457 243.429 184.305 244.343C182.153 245.256 179.847 245.726 177.518 245.725Z" fill="#263238"/>
<path d="M177.31 7.51767H161.529C161.014 7.52807 160.506 7.64279 160.035 7.85525C159.563 8.06771 159.137 8.37371 158.781 8.75565C158.425 9.1376 158.146 9.58796 157.96 10.0808C157.774 10.5737 157.685 11.0994 157.698 11.6277V14.5615C157.71 15.0897 157.621 15.6152 157.434 16.1078C157.247 16.6003 156.968 17.0502 156.611 17.4315C156.254 17.8128 155.828 18.1181 155.356 18.3297C154.884 18.5414 154.376 18.6553 153.861 18.6648H123.1C122.585 18.6544 122.077 18.5397 121.605 18.3272C121.134 18.1148 120.707 17.8088 120.351 17.4268C119.995 17.0449 119.716 16.5945 119.531 16.1016C119.345 15.6087 119.256 15.0831 119.269 14.5548V11.6143C119.285 11.0855 119.2 10.5585 119.017 10.0638C118.834 9.56916 118.557 9.1165 118.203 8.73196C117.848 8.34743 117.423 8.03861 116.952 7.82332C116.481 7.60803 115.973 7.49052 115.457 7.47757H109.906H96.0993C94.4673 7.47405 92.8507 7.80049 91.3418 8.43821C89.8329 9.07593 88.4614 10.0124 87.3056 11.1942C86.1498 12.3759 85.2324 13.7797 84.6059 15.3253C83.9794 16.8709 83.6561 18.528 83.6544 20.2019L83.6153 224.499C83.6102 226.17 83.9266 227.825 84.5464 229.371C85.1662 230.916 86.0773 232.32 87.2274 233.504C88.3775 234.687 89.7439 235.626 91.2485 236.267C92.753 236.907 94.366 237.237 95.995 237.237L177.232 237.284C178.863 237.285 180.478 236.956 181.985 236.317C183.492 235.677 184.862 234.74 186.015 233.558C187.169 232.375 188.085 230.972 188.71 229.427C189.335 227.882 189.657 226.225 189.657 224.553L189.736 20.2553C189.736 18.582 189.414 16.9251 188.79 15.3793C188.165 13.8335 187.25 12.429 186.096 11.2461C184.942 10.0632 183.572 9.12508 182.065 8.48535C180.557 7.84561 178.942 7.51679 177.31 7.51767Z" fill="white"/>
<path d="M190.627 39.9775C190.627 40.071 166.643 40.1512 137.068 40.1512C107.494 40.1512 83.5293 40.051 83.5293 39.9775C83.5293 39.904 107.507 39.8037 137.101 39.8037C166.695 39.8037 190.627 39.8772 190.627 39.9775Z" fill="#263238"/>
<path d="M94.7043 32.4057C94.6255 32.4065 94.5491 32.378 94.4893 32.3255L91.3943 29.5387C91.3577 29.5083 91.3286 29.4695 91.3093 29.4253C91.2901 29.3812 91.2813 29.3331 91.2836 29.2848C91.283 29.2361 91.2933 29.1879 91.3137 29.1439C91.334 29.0999 91.3638 29.0613 91.4008 29.0308L94.4958 26.3577C94.5625 26.3023 94.6478 26.2761 94.7332 26.2849C94.8186 26.2936 94.8972 26.3366 94.9519 26.4044C94.9794 26.4379 95.0002 26.4768 95.0128 26.5187C95.0255 26.5606 95.0298 26.6046 95.0256 26.6482C95.0213 26.6919 95.0086 26.7342 94.9881 26.7727C94.9676 26.8111 94.9398 26.845 94.9063 26.8722L92.1111 29.2647L94.9128 31.7909C94.9453 31.8191 94.9721 31.8537 94.9914 31.8926C95.0107 31.9316 95.0222 31.9741 95.0252 32.0177C95.0283 32.0613 95.0228 32.1051 95.0091 32.1465C94.9953 32.1879 94.9737 32.226 94.9454 32.2587C94.9191 32.3008 94.8836 32.336 94.8418 32.3615C94.7999 32.387 94.7528 32.4021 94.7043 32.4057Z" fill="#263238"/>
<path d="M162.239 29.1047C162.239 29.2049 152.16 29.2784 139.721 29.2784C127.283 29.2784 117.203 29.2049 117.203 29.1047C117.203 29.0044 127.283 28.9309 139.721 28.9309C152.16 28.9309 162.239 29.0111 162.239 29.1047Z" fill="#263238"/>
<path d="M175.283 29.0838C175.283 29.3217 175.214 29.5543 175.085 29.7521C174.957 29.9499 174.773 30.1041 174.559 30.1951C174.345 30.2862 174.109 30.31 173.882 30.2636C173.654 30.2172 173.445 30.1026 173.281 29.9344C173.117 29.7662 173.005 29.5518 172.96 29.3185C172.915 29.0851 172.938 28.8433 173.027 28.6234C173.116 28.4036 173.266 28.2158 173.459 28.0836C173.652 27.9514 173.878 27.8809 174.11 27.8809C174.421 27.8809 174.72 28.0076 174.94 28.2332C175.16 28.4588 175.283 28.7647 175.283 29.0838Z" fill="#263238"/>
<path d="M178.658 29.0838C178.658 29.322 178.589 29.5548 178.46 29.7528C178.331 29.9508 178.147 30.1049 177.933 30.1958C177.718 30.2866 177.482 30.3101 177.254 30.2631C177.026 30.2161 176.817 30.1009 176.654 29.932C176.49 29.7631 176.379 29.5481 176.334 29.3144C176.29 29.0806 176.314 28.8385 176.404 28.6188C176.493 28.3991 176.645 28.2117 176.838 28.0803C177.032 27.949 177.26 27.8796 177.492 27.8809C177.646 27.8809 177.798 27.912 177.94 27.9726C178.082 28.0331 178.21 28.1218 178.319 28.2336C178.427 28.3454 178.513 28.4781 178.571 28.624C178.629 28.7699 178.659 28.9261 178.658 29.0838Z" fill="#263238"/>
<path d="M182.041 29.0838C182.041 29.3217 181.972 29.5543 181.843 29.7521C181.714 29.9499 181.531 30.1041 181.317 30.1951C181.103 30.2862 180.867 30.31 180.639 30.2636C180.412 30.2172 180.203 30.1026 180.039 29.9344C179.875 29.7662 179.763 29.5518 179.718 29.3185C179.673 29.0851 179.696 28.8433 179.785 28.6234C179.873 28.4036 180.024 28.2158 180.217 28.0836C180.409 27.9514 180.636 27.8809 180.868 27.8809C181.179 27.8809 181.477 28.0076 181.697 28.2332C181.917 28.4588 182.041 28.7647 182.041 29.0838Z" fill="#263238"/>
<path d="M126.906 84.86C126.906 85.6352 126.593 86.103 126.072 86.103C125.949 86.1152 125.826 86.0823 125.724 86.0101C125.623 85.9379 125.55 85.8311 125.518 85.7087C125.431 85.8385 125.312 85.943 125.174 86.012C125.036 86.0811 124.883 86.1124 124.729 86.103C124.449 86.081 124.188 85.9514 123.997 85.7402C123.806 85.5289 123.7 85.2515 123.7 84.9636C123.7 84.6756 123.806 84.3983 123.997 84.187C124.188 83.9757 124.449 83.8461 124.729 83.8241C124.867 83.8167 125.004 83.8418 125.131 83.8974C125.257 83.953 125.37 84.0377 125.459 84.1449V83.8509H125.941V85.3746C125.941 85.6018 126.046 85.682 126.169 85.682C126.404 85.682 126.534 85.3946 126.534 84.8667C126.538 84.6455 126.496 84.4261 126.412 84.2226C126.327 84.019 126.202 83.836 126.044 83.6854C125.886 83.5348 125.699 83.4199 125.495 83.3482C125.291 83.2766 125.074 83.2497 124.86 83.2694C124.634 83.2487 124.406 83.2764 124.19 83.351C123.975 83.4255 123.778 83.5451 123.61 83.7023C123.443 83.8595 123.309 84.0507 123.217 84.2638C123.126 84.477 123.078 84.7073 123.078 84.9402C123.078 85.1731 123.126 85.4034 123.217 85.6165C123.309 85.8296 123.443 86.0209 123.61 86.178C123.778 86.3352 123.975 86.4549 124.19 86.5294C124.406 86.6039 124.634 86.6317 124.86 86.6109C125.153 86.6123 125.443 86.5436 125.707 86.4104L125.824 86.7713C125.522 86.9135 125.192 86.9843 124.86 86.9785C124.589 86.9944 124.317 86.9534 124.062 86.858C123.807 86.7626 123.574 86.6147 123.377 86.4236C123.179 86.2325 123.022 86.002 122.915 85.7463C122.807 85.4907 122.752 85.2152 122.752 84.9368C122.752 84.6584 122.807 84.383 122.915 84.1273C123.022 83.8717 123.179 83.6412 123.377 83.4501C123.574 83.2589 123.807 83.1111 124.062 83.0157C124.317 82.9203 124.589 82.8793 124.86 82.8952C125.122 82.8748 125.386 82.9106 125.635 83.0004C125.883 83.0901 126.111 83.2319 126.303 83.4166C126.496 83.6013 126.649 83.825 126.752 84.0734C126.856 84.3219 126.908 84.5897 126.906 84.86ZM125.466 84.9602C125.458 84.83 125.413 84.705 125.337 84.6005C125.261 84.496 125.157 84.4166 125.038 84.3721C124.918 84.3276 124.788 84.32 124.665 84.3501C124.541 84.3803 124.429 84.4469 124.341 84.5417C124.254 84.6366 124.196 84.7556 124.174 84.884C124.151 85.0124 124.166 85.1447 124.217 85.2645C124.267 85.3843 124.35 85.4864 124.456 85.5582C124.563 85.63 124.687 85.6684 124.814 85.6686C124.903 85.6688 124.991 85.6503 125.073 85.6142C125.154 85.5781 125.228 85.5253 125.289 85.4589C125.35 85.3926 125.397 85.3141 125.428 85.2283C125.458 85.1425 125.471 85.0513 125.466 84.9602Z" fill="#263238"/>
<path d="M151.527 86.0764C151.527 86.17 146.809 86.2502 140.997 86.2502C135.185 86.2502 130.475 86.17 130.475 86.0764C130.475 85.9829 135.185 85.896 140.997 85.896C146.809 85.896 151.527 85.9762 151.527 86.0764Z" fill="#263238"/>
<path d="M109.899 116.617C108.94 116.849 107.94 116.849 106.98 116.617C107.94 116.385 108.94 116.385 109.899 116.617Z" fill="#263238"/>
<path d="M116.759 123.862C116.759 123.955 113.241 124.036 108.895 124.036C104.549 124.036 101.037 123.955 101.037 123.862C101.037 123.768 104.556 123.688 108.895 123.688C113.234 123.688 116.759 123.768 116.759 123.862Z" fill="#263238"/>
<path d="M141.52 116.617C140.036 116.793 138.542 116.851 137.05 116.791C135.558 116.851 134.063 116.793 132.58 116.617C134.064 116.445 135.558 116.387 137.05 116.444C138.542 116.387 140.036 116.445 141.52 116.617Z" fill="#263238"/>
<path d="M144.165 123.474C144.165 123.567 140.561 123.647 136.118 123.647C131.674 123.647 128.064 123.567 128.064 123.474C128.064 123.38 131.668 123.3 136.118 123.3C140.568 123.3 144.165 123.38 144.165 123.474Z" fill="#263238"/>
<path d="M170.71 116.718C168.706 116.89 166.694 116.948 164.683 116.891C162.673 116.948 160.661 116.89 158.656 116.718C160.66 116.541 162.673 116.483 164.683 116.544C166.694 116.483 168.706 116.541 170.71 116.718Z" fill="#263238"/>
<path d="M172.964 123.761C172.964 123.861 169.491 123.935 165.204 123.935C160.917 123.935 157.438 123.861 157.438 123.761C157.438 123.661 160.91 123.587 165.204 123.587C169.498 123.587 172.964 123.667 172.964 123.761Z" fill="#263238"/>
<path d="M150.452 130.618H106.288C105.371 130.618 104.627 131.381 104.627 132.322V142.915C104.627 143.856 105.371 144.619 106.288 144.619H150.452C151.369 144.619 152.113 143.856 152.113 142.915V132.322C152.113 131.381 151.369 130.618 150.452 130.618Z" fill="#C01A86"/>
<path d="M143.136 137.855C143.136 137.949 137.024 138.029 129.486 138.029C121.947 138.029 115.803 137.949 115.803 137.855C115.803 137.762 121.914 137.681 129.486 137.681C137.057 137.681 143.136 137.755 143.136 137.855Z" fill="white"/>
<path d="M168.064 130.357H157.587C156.734 130.357 156.043 131.067 156.043 131.941V143.122C156.043 143.997 156.734 144.706 157.587 144.706H168.064C168.917 144.706 169.609 143.997 169.609 143.122V131.941C169.609 131.067 168.917 130.357 168.064 130.357Z" fill="#EBEBEB"/>
<path d="M161.359 136.8H164.285L162.949 138.905L161.359 136.8Z" fill="#263238"/>
<path d="M152.114 155.031C152.114 155.131 144.562 155.205 135.251 155.205C125.94 155.205 118.389 155.131 118.389 155.031C118.389 154.931 125.94 154.857 135.251 154.857C144.562 154.857 152.114 154.937 152.114 155.031Z" fill="#E0E0E0"/>
<path d="M161.927 161.546C161.927 161.639 150.851 161.72 137.168 161.72C123.485 161.72 112.408 161.639 112.408 161.546C112.408 161.452 123.485 161.372 137.168 161.372C150.851 161.372 161.927 161.452 161.927 161.546Z" fill="#E0E0E0"/>
<path d="M190.386 172.841C190.386 172.941 166.636 173.021 137.336 173.021C108.035 173.021 84.2852 172.941 84.2852 172.841C84.2852 172.741 108.035 172.667 137.336 172.667C166.636 172.667 190.386 172.747 190.386 172.841Z" fill="#263238"/>
<path d="M138.393 185.519C138.225 183.47 138.169 181.413 138.223 179.357C138.168 177.304 138.225 175.249 138.393 173.202C138.565 175.249 138.621 177.304 138.562 179.357C138.621 181.413 138.565 183.47 138.393 185.519Z" fill="#263238"/>
<path d="M131.805 95.1987L128.755 102.376H127.452L124.396 95.1987H125.804L128.13 100.732L130.482 95.1987H131.805Z" fill="#028CCC"/>
<path d="M137.024 100.05H132.834C132.911 100.453 133.131 100.812 133.451 101.059C133.771 101.306 134.169 101.422 134.567 101.387C134.836 101.398 135.103 101.351 135.353 101.248C135.602 101.146 135.827 100.99 136.014 100.792L136.665 101.58C136.393 101.882 136.059 102.118 135.687 102.272C135.316 102.425 134.915 102.493 134.515 102.469C132.73 102.469 131.57 101.293 131.57 99.6624C131.557 99.2861 131.62 98.9112 131.756 98.5614C131.892 98.2117 132.097 97.8947 132.359 97.6307C132.62 97.3667 132.933 97.1615 133.276 97.028C133.619 96.8946 133.986 96.8358 134.352 96.8555C134.715 96.8419 135.077 96.9061 135.414 97.0442C135.751 97.1822 136.057 97.391 136.31 97.6571C136.564 97.9233 136.761 98.2409 136.889 98.5897C137.016 98.9384 137.071 99.3106 137.05 99.6824C137.043 99.7693 137.03 99.923 137.024 100.05ZM132.828 99.1946H135.851C135.815 98.8165 135.638 98.4671 135.358 98.2184C135.078 97.9698 134.716 97.8407 134.346 97.858C133.975 97.8437 133.613 97.9734 133.331 98.2212C133.05 98.469 132.87 98.8166 132.828 99.1946Z" fill="#028CCC"/>
<path d="M141.331 96.8556V98.0719C141.236 98.052 141.14 98.0408 141.044 98.0385C140.827 98.0214 140.61 98.0543 140.408 98.1347C140.205 98.2151 140.023 98.3411 139.874 98.5032C139.725 98.6654 139.614 98.8598 139.548 99.0719C139.482 99.2841 139.463 99.5087 139.493 99.7293V102.402H138.262V96.9291H139.454V97.7244C139.668 97.4268 139.953 97.1907 140.282 97.0386C140.61 96.8864 140.971 96.8234 141.331 96.8556Z" fill="#028CCC"/>
<path d="M142.223 95.2319C142.223 95.1266 142.245 95.0225 142.286 94.9261C142.327 94.8296 142.387 94.7428 142.462 94.6709C142.537 94.599 142.626 94.5435 142.722 94.5078C142.819 94.4721 142.922 94.457 143.024 94.4634C143.124 94.4551 143.224 94.4679 143.319 94.5009C143.414 94.5339 143.502 94.5864 143.576 94.6553C143.65 94.7241 143.71 94.8077 143.752 94.9012C143.794 94.9946 143.817 95.0957 143.819 95.1985C143.801 95.4028 143.709 95.5929 143.561 95.7313C143.414 95.8697 143.221 95.9464 143.021 95.9464C142.821 95.9464 142.628 95.8697 142.48 95.7313C142.333 95.5929 142.241 95.4028 142.223 95.1985V95.2319ZM142.392 96.9026H143.643V102.376H142.392V96.9026Z" fill="#028CCC"/>
<path d="M147.382 94.6973C147.781 94.6793 148.176 94.784 148.516 94.998L148.164 95.9603C147.962 95.8148 147.721 95.7356 147.474 95.7331C146.952 95.7331 146.685 96.0272 146.685 96.6153V96.9427H148.158V97.9652H146.731V102.376H145.428V97.9652H144.555V96.9427H145.428V96.5952C145.407 96.3312 145.444 96.0657 145.536 95.8183C145.629 95.5709 145.774 95.348 145.962 95.1658C146.149 94.9837 146.374 94.8471 146.62 94.766C146.866 94.6849 147.127 94.6614 147.382 94.6973ZM149.624 95.2319C149.625 95.1266 149.646 95.0225 149.687 94.9261C149.729 94.8296 149.788 94.7428 149.863 94.6709C149.938 94.599 150.027 94.5435 150.124 94.5078C150.22 94.4721 150.323 94.457 150.425 94.4634C150.525 94.4551 150.626 94.4679 150.721 94.5009C150.815 94.5339 150.903 94.5864 150.977 94.6553C151.052 94.7241 151.112 94.8077 151.153 94.9012C151.195 94.9946 151.218 95.0957 151.22 95.1985C151.202 95.4028 151.11 95.5929 150.963 95.7313C150.815 95.8697 150.622 95.9464 150.422 95.9464C150.222 95.9464 150.029 95.8697 149.881 95.7313C149.734 95.5929 149.642 95.4028 149.624 95.1985V95.2319ZM149.793 96.9026H151.044V102.376H149.793V96.9026Z" fill="#028CCC"/>
<path d="M157.651 100.05H153.468C153.544 100.452 153.762 100.812 154.081 101.059C154.4 101.305 154.797 101.422 155.195 101.387C155.464 101.396 155.732 101.347 155.982 101.245C156.232 101.143 156.459 100.988 156.648 100.792L157.299 101.581C157.028 101.883 156.694 102.12 156.322 102.273C155.95 102.427 155.549 102.494 155.149 102.469C153.364 102.469 152.204 101.293 152.204 99.6625C152.194 99.29 152.259 98.9194 152.394 98.5736C152.529 98.2277 152.733 97.9141 152.991 97.6522C153.249 97.3903 153.558 97.1856 153.896 97.0509C154.235 96.9162 154.597 96.8543 154.96 96.8691C155.323 96.8554 155.685 96.9197 156.022 97.0577C156.359 97.1957 156.665 97.4045 156.919 97.6707C157.172 97.9368 157.369 98.2545 157.497 98.6032C157.624 98.952 157.679 99.3242 157.658 99.696C157.671 99.7695 157.664 99.9232 157.651 100.05ZM153.455 99.1947H156.504C156.467 98.8161 156.289 98.4667 156.008 98.2181C155.727 97.9696 155.364 97.8408 154.993 97.8582C154.619 97.8403 154.253 97.9682 153.968 98.2162C153.682 98.4642 153.499 98.8138 153.455 99.1947Z" fill="#028CCC"/>
<path d="M164.103 94.7705V102.376H162.904V101.667C162.686 101.925 162.413 102.128 162.108 102.262C161.802 102.396 161.47 102.458 161.138 102.443C160.414 102.443 159.72 102.148 159.208 101.622C158.696 101.097 158.408 100.385 158.408 99.6424C158.408 98.8997 158.696 98.1875 159.208 97.6624C159.72 97.1372 160.414 96.8422 161.138 96.8422C161.459 96.8275 161.779 96.8857 162.075 97.0128C162.372 97.1399 162.637 97.3327 162.852 97.5773V94.7705H164.103ZM162.871 99.6357C162.856 99.3171 162.75 99.01 162.566 98.7526C162.383 98.4952 162.129 98.2988 161.838 98.1875C161.546 98.0763 161.229 98.0553 160.926 98.1269C160.623 98.1986 160.347 98.3599 160.133 98.5908C159.918 98.8218 159.774 99.1122 159.719 99.4261C159.664 99.74 159.699 100.064 159.822 100.357C159.944 100.65 160.148 100.9 160.407 101.076C160.666 101.252 160.971 101.346 161.282 101.347C161.498 101.351 161.713 101.309 161.913 101.223C162.113 101.138 162.294 101.01 162.443 100.849C162.593 100.689 162.708 100.498 162.782 100.289C162.855 100.08 162.886 99.8574 162.871 99.6357Z" fill="#028CCC"/>
<path d="M114.552 104.174C117.578 104.174 120.032 101.657 120.032 98.5532C120.032 95.4492 117.578 92.9329 114.552 92.9329C111.526 92.9329 109.072 95.4492 109.072 98.5532C109.072 101.657 111.526 104.174 114.552 104.174Z" fill="#028CCC"/>
<path d="M112.074 98.6597L112.778 97.938L114.14 99.1743L116.805 96.5413L117.456 97.263L114.035 100.564L112.074 98.6597Z" fill="white"/>
<path d="M138.104 237.258H95.1011C92.0251 237.247 89.0789 235.985 86.9093 233.749C84.7398 231.512 83.5241 228.484 83.5293 225.329V185.519H138.137L138.104 237.258Z" fill="#EBEBEB"/>
<path d="M177.765 237.365L137.609 237.258V185.519H189.852V224.995C189.785 228.259 188.489 231.369 186.236 233.675C183.983 235.981 180.948 237.303 177.765 237.365Z" fill="#455A64"/>
<path d="M190.387 185.518C190.387 185.612 166.638 185.692 137.343 185.692C108.049 185.692 84.293 185.612 84.293 185.518C84.293 185.425 108.036 185.345 137.343 185.345C166.651 185.345 190.387 185.425 190.387 185.518Z" fill="#263238"/>
<path d="M136.548 215.812C136.548 215.812 136.49 215.812 136.398 215.718L135.988 215.411L134.437 214.221L128.768 209.784C127.576 208.855 126.26 207.779 124.859 206.729C124.485 206.507 124.057 206.397 123.625 206.412C123.193 206.428 122.774 206.568 122.416 206.816C122.055 207.123 121.715 207.456 121.399 207.812L120.363 208.888L111.241 218.338L110.681 218.919L110.577 219.026L110.459 218.939L105.195 214.929L102.693 213.011C102.351 212.679 101.921 212.459 101.456 212.379C100.992 212.3 100.515 212.364 100.087 212.564C99.6845 212.802 99.3199 213.102 99.005 213.452L97.9755 214.435L96.0208 216.306L92.5024 219.648L87.4006 224.473L85.9997 225.769L85.6349 226.103C85.5523 226.179 85.5067 226.212 85.498 226.204C85.5295 226.157 85.5668 226.114 85.6088 226.077L85.9541 225.722L87.3094 224.386L92.3395 219.48L95.8319 216.099L97.7866 214.221L98.8095 213.232L99.3308 212.731C99.5256 212.55 99.7451 212.399 99.9823 212.283C100.458 212.047 100.992 211.968 101.514 212.056C101.777 212.098 102.033 212.183 102.269 212.31C102.501 212.436 102.719 212.586 102.921 212.757L105.429 214.662L110.701 218.672H110.479L111.039 218.084L120.161 208.654L121.204 207.585C121.532 207.215 121.887 206.871 122.266 206.556C122.672 206.279 123.146 206.125 123.633 206.111C124.12 206.097 124.601 206.223 125.022 206.476C126.468 207.578 127.732 208.634 128.931 209.583L134.535 214.107L136.053 215.35L136.437 215.685C136.479 215.722 136.517 215.765 136.548 215.812Z" fill="#263238"/>
<path d="M115.236 198.435C115.196 198.435 115.236 198.008 115.021 197.266C114.74 196.228 114.13 195.316 113.287 194.673C112.711 194.232 112.041 193.936 111.333 193.811C110.527 193.664 109.698 193.738 108.928 194.025C108.077 194.344 107.337 194.916 106.804 195.669C106.229 196.472 105.919 197.442 105.919 198.439C105.919 199.435 106.229 200.406 106.804 201.209C107.315 201.92 108.01 202.471 108.81 202.8C109.61 203.128 110.484 203.22 111.333 203.067C112.042 202.941 112.713 202.643 113.287 202.198C114.13 201.555 114.74 200.643 115.021 199.605C115.216 198.87 115.196 198.435 115.236 198.435C115.245 198.54 115.245 198.645 115.236 198.75C115.236 199.049 115.203 199.347 115.138 199.638C114.896 200.732 114.29 201.706 113.424 202.392C112.828 202.871 112.129 203.199 111.385 203.347C110.481 203.527 109.546 203.44 108.688 203.097C107.83 202.754 107.084 202.169 106.537 201.409C105.916 200.55 105.58 199.509 105.58 198.439C105.58 197.369 105.916 196.327 106.537 195.468C107.111 194.667 107.905 194.059 108.818 193.724C109.641 193.425 110.527 193.356 111.385 193.523C112.128 193.675 112.826 194.002 113.424 194.479C114.289 195.166 114.894 196.139 115.138 197.233C115.204 197.526 115.236 197.827 115.236 198.128C115.245 198.23 115.245 198.333 115.236 198.435Z" fill="#263238"/>
<path d="M188.237 214.154C188.237 214.154 188.185 214.154 188.093 214.061L187.702 213.76L186.204 212.564L180.737 208.119C179.59 207.19 178.326 206.115 176.978 205.065C176.617 204.843 176.2 204.736 175.779 204.759C175.359 204.781 174.955 204.932 174.619 205.192C174.276 205.504 173.952 205.836 173.648 206.188L172.658 207.264L163.933 216.68L163.386 217.262L163.282 217.375L163.158 217.282L158.082 213.272L155.671 211.354C155.347 211.02 154.927 210.8 154.473 210.725C154.019 210.651 153.553 210.726 153.143 210.94C152.761 211.19 152.413 211.491 152.107 211.835L151.124 212.817L149.241 214.682L145.859 218.024L140.966 222.835L139.623 224.132L139.265 224.459C139.187 224.533 139.141 224.573 139.135 224.566C139.166 224.519 139.203 224.476 139.246 224.439C139.33 224.339 139.441 224.225 139.571 224.085L140.874 222.748L145.696 217.856L149.045 214.482C149.651 213.88 150.27 213.252 150.915 212.604L151.892 211.621L152.394 211.12C152.572 210.941 152.774 210.788 152.994 210.666C153.453 210.416 153.978 210.325 154.492 210.405C154.752 210.444 155.003 210.527 155.235 210.652C155.465 210.78 155.683 210.93 155.886 211.1L158.297 213.011L163.379 217.021H163.151L163.699 216.433L172.443 207.037L173.44 205.967C173.757 205.603 174.097 205.259 174.456 204.938C174.841 204.647 175.302 204.48 175.78 204.457C176.257 204.434 176.731 204.558 177.141 204.811C178.541 205.914 179.747 206.97 180.907 207.919L186.302 212.45L187.755 213.7L188.126 214.027L188.237 214.154Z" fill="#263238"/>
<path d="M166.084 196.946C166.051 196.946 166.084 196.519 165.875 195.783C165.598 194.744 164.987 193.831 164.142 193.19C163.655 192.817 163.1 192.547 162.511 192.394C161.921 192.242 161.308 192.211 160.706 192.303C160.105 192.395 159.527 192.608 159.006 192.93C158.485 193.252 158.032 193.677 157.672 194.18C157.097 194.983 156.787 195.953 156.787 196.95C156.787 197.946 157.097 198.917 157.672 199.72C158.204 200.471 158.944 201.042 159.796 201.357C160.517 201.63 161.293 201.712 162.053 201.595C162.813 201.478 163.531 201.166 164.142 200.689C164.986 200.047 165.596 199.134 165.875 198.096C165.965 197.71 166.034 197.32 166.084 196.926C166.101 197.03 166.101 197.136 166.084 197.24C166.084 197.539 166.052 197.838 165.986 198.129C165.762 199.225 165.175 200.207 164.325 200.909C163.726 201.384 163.028 201.709 162.285 201.858C161.428 202.033 160.54 201.963 159.718 201.658C158.806 201.325 158.011 200.72 157.438 199.92C156.816 199.061 156.48 198.019 156.48 196.95C156.48 195.88 156.816 194.838 157.438 193.979C157.985 193.219 158.73 192.634 159.588 192.291C160.446 191.948 161.381 191.861 162.285 192.041C163.028 192.19 163.726 192.515 164.325 192.99C165.191 193.678 165.796 194.654 166.038 195.75C166.104 196.041 166.137 196.34 166.136 196.639C166.136 196.744 166.119 196.848 166.084 196.946Z" fill="#263238"/>
<path d="M138.411 80.4759C146.745 80.4759 153.501 73.5463 153.501 64.9982C153.501 56.4501 146.745 49.5205 138.411 49.5205C130.076 49.5205 123.32 56.4501 123.32 64.9982C123.32 73.5463 130.076 80.4759 138.411 80.4759Z" fill="#F5F5F5"/>
<path d="M148.166 76.7404C147.909 74.2852 146.761 72.019 144.95 70.3912C143.14 68.7634 140.799 67.8929 138.393 67.9523C133.037 67.9523 129.368 72.1091 128.619 76.7738C128.619 76.7738 131.929 80.5296 138.393 80.4761C144.856 80.4227 148.166 76.7404 148.166 76.7404Z" fill="#E0E0E0"/>
<path d="M144.551 63.4851C145.074 60.1673 142.876 57.043 139.641 56.5068C136.406 55.9706 133.36 58.2255 132.837 61.5434C132.314 64.8612 134.513 67.9855 137.748 68.5217C140.982 69.0579 144.029 66.803 144.551 63.4851Z" fill="#E0E0E0"/>
<path d="M148.093 76.2127C147.908 75.2226 147.6 74.2612 147.174 73.3524C146.626 72.336 145.902 71.4302 145.037 70.6792C143.902 69.6962 142.596 68.9432 141.187 68.4605L140.874 68.3602L141.161 68.2065C142.155 67.6521 142.972 66.8142 143.513 65.794C143.983 64.895 144.218 63.8862 144.195 62.8661C144.172 61.846 143.892 60.8495 143.381 59.9738C142.87 59.0981 142.147 58.3733 141.282 57.8699C140.416 57.3666 139.438 57.102 138.444 57.102C137.449 57.102 136.471 57.3666 135.606 57.8699C134.74 58.3733 134.017 59.0981 133.506 59.9738C132.995 60.8495 132.715 61.846 132.692 62.8661C132.669 63.8862 132.904 64.895 133.374 65.794C133.648 66.3152 133.995 66.7926 134.404 67.2108C134.8 67.6019 135.237 67.9471 135.707 68.2399L135.968 68.407L135.668 68.4939C134.225 68.8834 132.9 69.6344 131.811 70.6792C130.984 71.4825 130.3 72.4279 129.791 73.4727C129.462 74.1427 129.196 74.8431 128.996 75.5644C128.924 75.8117 128.879 76.0055 128.846 76.1325C128.837 76.1993 128.82 76.2645 128.794 76.3263C128.782 76.26 128.782 76.1921 128.794 76.1258C128.794 75.9921 128.846 75.7917 128.905 75.5444C129.075 74.8068 129.322 74.0899 129.641 73.4059C130.135 72.3255 130.815 71.3453 131.648 70.5121C132.745 69.427 134.089 68.6392 135.557 68.2199L135.518 68.4738C135.026 68.1761 134.567 67.8243 134.15 67.4246C133.716 66.9877 133.347 66.4878 133.055 65.941C132.411 64.7079 132.189 63.2885 132.425 61.9105C132.661 60.5326 133.342 59.276 134.358 58.3425C135.471 57.314 136.916 56.7449 138.414 56.7449C139.912 56.7449 141.357 57.314 142.47 58.3425C143.197 59.0124 143.755 59.8526 144.097 60.7916C144.439 61.7305 144.554 62.7402 144.433 63.7348C144.312 64.7293 143.958 65.6791 143.402 66.5031C142.846 67.3271 142.104 68.001 141.239 68.4672V68.2065C142.677 68.7109 144.005 69.4987 145.148 70.5255C146.023 71.3084 146.746 72.2539 147.279 73.3123C147.465 73.7042 147.62 74.1109 147.741 74.5286C147.843 74.8311 147.919 75.1419 147.969 75.4575C148.002 75.6914 148.028 75.8852 148.048 76.0456C148.067 76.206 148.106 76.2127 148.093 76.2127Z" fill="#263238"/>
<path d="M153.502 64.9986C153.481 64.9155 153.47 64.8303 153.469 64.7446C153.469 64.5642 153.469 64.3236 153.417 64.0162L153.384 63.4749C153.384 63.2744 153.319 63.0605 153.28 62.8066C153.212 62.2668 153.106 61.7329 152.961 61.2093C152.607 59.7672 152.042 58.3882 151.286 57.1194C149.497 54.0558 146.723 51.7271 143.441 50.5332C140.159 49.3393 136.575 49.3547 133.303 50.5768C132.633 50.8246 131.979 51.1193 131.348 51.4589C130.711 51.8171 130.099 52.2213 129.517 52.6685C128.922 53.1219 128.356 53.6153 127.823 54.1455C127.297 54.7042 126.807 55.298 126.357 55.9231C125.431 57.2026 124.712 58.6264 124.227 60.1401C123.202 63.2777 123.202 66.6726 124.227 69.8103C124.712 71.326 125.431 72.752 126.357 74.0339C126.809 74.6577 127.299 75.2514 127.823 75.8115C128.356 76.3417 128.922 76.8351 129.517 77.2885C130.101 77.7334 130.712 78.1375 131.348 78.4981C134.346 80.1191 137.786 80.6671 141.122 80.0552C143.217 79.66 145.206 78.8143 146.959 77.5737C148.712 76.3332 150.189 74.7259 151.293 72.8577C152.05 71.587 152.615 70.2057 152.967 68.7611C153.112 68.2398 153.219 67.7081 153.287 67.1705C153.326 66.9366 153.365 66.7228 153.391 66.5022L153.423 65.9609C153.423 65.6535 153.462 65.4129 153.476 65.2258C153.477 65.1423 153.488 65.0594 153.508 64.9785C153.517 65.0629 153.517 65.148 153.508 65.2325C153.508 65.4129 153.508 65.6602 153.508 65.9676C153.508 66.1347 153.508 66.3151 153.508 66.5089C153.508 66.7027 153.449 66.9299 153.423 67.1772C153.365 67.7208 153.267 68.2592 153.13 68.7878C152.792 70.253 152.238 71.6569 151.488 72.9513C150.39 74.8576 148.91 76.503 147.145 77.7784C145.381 79.0537 143.372 79.9301 141.252 80.3493C138.57 80.8641 135.803 80.6333 133.238 79.681C132.555 79.4285 131.888 79.1294 131.244 78.7855C130.592 78.4208 129.965 78.0099 129.368 77.5558C128.757 77.0933 128.178 76.5887 127.634 76.0455C127.095 75.4774 126.595 74.8723 126.136 74.2344C125.184 72.9256 124.445 71.4678 123.947 69.9172C123.447 68.3201 123.181 66.6557 123.158 64.9785C123.179 63.2984 123.447 61.6312 123.953 60.0331C124.448 58.4844 125.185 57.0285 126.136 55.7226C126.595 55.0826 127.095 54.4753 127.634 53.9049C128.181 53.3673 128.76 52.8651 129.368 52.4012C129.965 51.9472 130.592 51.5363 131.244 51.1716C131.888 50.8277 132.555 50.5285 133.238 50.2761C135.801 49.324 138.566 49.0932 141.246 49.6078C143.367 50.0257 145.377 50.9014 147.143 52.1769C148.909 53.4524 150.39 55.0984 151.488 57.0058C152.238 58.2978 152.792 59.6995 153.13 61.1626C153.267 61.6934 153.365 62.234 153.423 62.7798C153.423 63.0137 153.489 63.2343 153.508 63.4481C153.528 63.662 153.508 63.829 153.508 63.9961C153.508 64.3035 153.508 64.5508 153.508 64.7312C153.515 64.8203 153.513 64.91 153.502 64.9986Z" fill="#263238"/>
<path d="M75.9993 135.302C68.0763 139.513 61.9972 146.764 57.6317 154.743C53.2662 162.723 50.4645 171.484 47.6563 180.178L45.2129 225.021C54.4325 208.935 61.8343 190.022 63.8346 171.471L57.6969 170.909C61.8148 170.241 65.2681 167.207 67.4704 163.558C69.6726 159.909 70.7998 155.746 71.901 151.636L64.4145 152.772C70.3201 148.691 74.4683 142.435 75.9993 135.302Z" fill="#455A64"/>
<path d="M75.9993 135.302C68.0763 139.513 61.9972 146.764 57.6317 154.743C53.2662 162.723 50.4645 171.484 47.6563 180.178L45.2129 225.021C54.4325 208.935 61.8343 190.022 63.8346 171.471L57.6969 170.909C61.8148 170.241 65.2681 167.207 67.4704 163.558C69.6726 159.909 70.7998 155.746 71.901 151.636L64.4145 152.772C70.3201 148.691 74.4683 142.435 75.9993 135.302Z" fill="#455A64"/>
<path d="M43.8444 235.533C43.8444 235.533 23.8348 210.96 24.0628 187.503H32.1488C32.1488 187.503 23.3657 181.581 24.0628 178.267C24.76 174.952 24.9881 162.388 24.9881 162.388L32.3833 164.286C32.3833 164.286 26.8385 161.446 26.1413 156.935C25.4442 152.424 27.7572 131.606 27.7572 131.606C27.7572 131.606 36.7684 141.317 39.544 151.268C42.3197 161.219 49.5912 172.827 47.454 203.154C45.3169 233.481 43.8444 235.533 43.8444 235.533Z" fill="#455A64"/>
<path d="M53.9949 237.865C53.9949 237.865 75.6789 223.049 80.494 204.137L73.9784 202.325C73.9784 202.325 82.3054 199.532 82.4487 196.712C82.592 193.892 85.055 183.74 85.055 183.74L78.7087 183.607C78.7087 183.607 83.7714 182.564 85.2895 179.102C86.8077 175.641 89.453 158.338 89.453 158.338C89.453 158.338 80.1356 164.132 75.7702 171.51C71.4047 178.888 63.0907 186.587 58.3408 211.448C53.5909 236.308 53.9949 237.865 53.9949 237.865Z" fill="#455A64"/>
<path d="M33.2305 152.993C33.2305 152.993 33.2305 153.08 33.2956 153.247C33.3608 153.414 33.3999 153.688 33.4715 154.002C33.6214 154.67 33.8299 155.673 34.1231 156.922C34.4163 158.172 34.7226 159.743 35.0679 161.547C35.4132 163.351 35.8367 165.41 36.2407 167.689C37.1008 172.246 37.9999 177.713 38.9317 183.728C39.8634 189.742 40.7365 196.472 41.5379 203.503C42.3393 210.533 42.9323 217.256 43.4014 223.371C43.8705 229.486 44.1768 235.006 44.3527 239.637C44.47 241.956 44.5221 244.055 44.5807 245.899C44.6394 247.744 44.6719 249.327 44.685 250.624C44.698 251.92 44.685 252.909 44.7176 253.611V254.386C44.7176 254.56 44.7176 254.654 44.7176 254.654C44.7067 254.565 44.7067 254.475 44.7176 254.386V253.611C44.7176 252.909 44.6589 251.907 44.6198 250.624C44.5807 249.341 44.5351 247.744 44.4569 245.906C44.3787 244.068 44.3071 241.97 44.1833 239.651C43.9683 235.019 43.6099 229.513 43.1538 223.398C42.6977 217.283 42.0461 210.573 41.2643 203.543C40.4824 196.512 39.5702 189.836 38.658 183.775C37.7458 177.713 36.8662 172.267 36.0517 167.735C35.6608 165.45 35.2634 163.398 34.9311 161.587C34.5988 159.776 34.2795 158.246 34.0384 156.949C33.7973 155.653 33.6019 154.71 33.4715 154.022C33.4129 153.695 33.3608 153.447 33.3282 153.254C33.2877 153.17 33.255 153.083 33.2305 152.993Z" fill="#263238"/>
<path d="M41.0681 250.563C41.0681 250.563 22.7526 229.264 17.071 216.38L21.3648 214.475C18.2503 215.003 15.0642 213.633 12.6469 211.548C10.2296 209.463 8.46383 206.723 6.72415 204.023L12.3797 203.04C7.17477 201.525 2.74039 198.008 0 193.223C6.67202 194.353 12.712 198.108 17.6835 202.813C21.7167 206.616 25.1243 211.033 28.4017 215.551C30.005 217.748 31.3992 220.098 32.5652 222.568C35.6667 229.11 41.0812 242.75 41.0681 250.563Z" fill="#455A64"/>
<path d="M80.7819 170.749C80.7632 170.824 80.7347 170.896 80.6972 170.963L80.417 171.585C80.1499 172.146 79.7655 172.921 79.2964 173.944C78.8272 174.966 78.2082 176.223 77.5306 177.686C76.853 179.15 76.0646 180.807 75.2371 182.658C73.543 186.354 71.6014 190.778 69.5099 195.723C67.4183 200.669 65.2356 206.162 63.0398 211.963C60.844 217.764 58.8959 223.324 57.1757 228.436C55.4556 233.549 54.0091 238.16 52.8363 242.056C52.2369 244.001 51.7352 245.772 51.2726 247.322C50.8099 248.873 50.432 250.209 50.1258 251.332C49.8196 252.455 49.5785 253.257 49.4026 253.852L49.2071 254.52C49.1886 254.596 49.1624 254.67 49.1289 254.74C49.1376 254.661 49.1528 254.583 49.1745 254.506C49.2136 254.339 49.2723 254.126 49.3374 253.838L49.989 251.299C50.2757 250.203 50.6405 248.853 51.0771 247.289C51.5136 245.725 52.0088 243.947 52.5952 242.009C53.7355 238.1 55.2015 233.475 56.863 228.363C58.5245 223.25 60.5248 217.67 62.7271 211.863C64.9294 206.055 67.1382 200.575 69.2427 195.623C71.3473 190.671 73.3215 186.267 75.0351 182.585C75.8822 180.734 76.6836 179.083 77.3808 177.626C78.0779 176.169 78.6839 174.953 79.1986 173.91L80.3714 171.578L80.6842 170.976C80.7092 170.898 80.742 170.821 80.7819 170.749Z" fill="#263238"/>
<path d="M42.6247 259.712C42.582 259.585 42.5535 259.452 42.54 259.318L42.3641 258.188C42.2924 257.694 42.2077 257.093 42.0774 256.397C41.9471 255.702 41.8428 254.907 41.6539 254.038C41.3281 252.294 40.859 250.236 40.2595 247.964C39.6601 245.691 38.8847 243.245 37.953 240.706C37.0213 238.166 35.9983 235.807 35.0079 233.689C34.0175 231.57 33.0532 229.719 32.141 228.189C31.7175 227.407 31.294 226.732 30.9356 226.13C30.5773 225.529 30.2841 225.008 29.9974 224.593L29.3979 223.624C29.3249 223.515 29.2617 223.398 29.209 223.277C29.3047 223.367 29.388 223.471 29.4566 223.584L30.1081 224.52C30.3883 224.921 30.7271 225.429 31.0985 226.024C31.4699 226.618 31.9065 227.287 32.343 228.062C33.2552 229.579 34.2521 231.443 35.2881 233.549C36.3241 235.654 37.3275 238.039 38.2723 240.579C39.217 243.118 39.9598 245.605 40.5592 247.883C41.1587 250.162 41.5952 252.241 41.8624 253.992C42.0318 254.867 42.1295 255.669 42.2338 256.371C42.338 257.072 42.4162 257.674 42.4618 258.168C42.5074 258.663 42.5465 259.01 42.5726 259.311C42.6073 259.442 42.6249 259.577 42.6247 259.712Z" fill="#263238"/>
<path d="M66.7913 254.699H26.707V263.087H66.7913V254.699Z" fill="#C01A86"/>
<path d="M30.5254 263.086L34.8648 291.295H59.0835L63.1232 263.086H30.5254Z" fill="#C01A86"/>
<path d="M64.3345 263.087C64.3345 263.181 56.7503 263.261 47.3938 263.261C38.0373 263.261 30.4531 263.181 30.4531 263.087C30.4531 262.994 38.0373 262.907 47.3938 262.907C56.7503 262.907 64.3345 262.987 64.3345 263.087Z" fill="#263238"/>
<g opacity="0.3">
<path d="M75.9993 135.302C68.0763 139.512 61.9972 146.763 57.6317 154.742C53.2662 162.722 50.4645 171.483 47.6563 180.177L45.2129 225.02C54.4325 208.934 61.8343 190.021 63.8346 171.47L57.6969 170.908C61.8148 170.24 65.2681 167.206 67.4704 163.557C69.6726 159.908 70.7998 155.745 71.901 151.635L64.4145 152.771C70.3201 148.69 74.4683 142.434 75.9993 135.302Z" fill="black"/>
</g>
<path d="M262.627 171.498C262.627 171.498 269.273 182.812 270.263 193.585C271.254 204.358 264.236 291.41 264.236 291.41H181.553C181.553 291.41 203.706 183.915 210.951 177.018L211.447 169.867L262.627 171.498Z" fill="#263238"/>
<path d="M266.159 180.126C266.177 180.632 266.166 181.138 266.126 181.643C266.031 183.093 265.767 184.527 265.338 185.913C264.668 188.118 263.623 190.184 262.25 192.015C261.394 193.16 260.41 194.199 259.318 195.109C258.085 196.103 256.778 196.997 255.408 197.782C253.981 198.637 252.457 199.466 250.932 200.455C249.334 201.423 247.88 202.621 246.612 204.011C245.317 205.553 244.318 207.333 243.667 209.257C243.016 211.318 242.565 213.44 242.318 215.592C242.025 217.797 241.836 220.076 241.543 222.402C241.279 224.785 240.755 227.13 239.979 229.392C239.138 231.745 237.765 233.859 235.972 235.561C234.096 237.255 231.972 238.638 229.678 239.657C225.117 241.803 220.321 243.173 216.275 245.672C214.291 246.877 212.554 248.466 211.16 250.35C209.887 252.21 208.908 254.265 208.261 256.438C206.958 260.675 206.371 264.905 205.29 268.735C205.147 269.209 205.003 269.684 204.866 270.152C204.73 270.619 204.547 271.067 204.391 271.522C204.056 272.403 203.678 273.266 203.257 274.108C202.873 274.943 202.384 275.705 201.954 276.467C201.713 276.834 201.465 277.195 201.224 277.55L200.866 278.078L200.475 278.579C198.638 280.983 196.439 283.069 193.959 284.76C192.091 286.04 190.078 287.082 187.965 287.861C186.629 288.342 185.259 288.715 183.866 288.977L182.778 289.144L182.4 289.191L182.772 289.111L183.853 288.911C185.235 288.622 186.594 288.229 187.919 287.734C192.808 285.87 197.095 282.646 200.299 278.425L200.683 277.93L201.042 277.403L201.758 276.327C202.188 275.571 202.671 274.816 203.062 273.981C203.477 273.149 203.849 272.294 204.176 271.421C204.332 270.974 204.482 270.519 204.638 270.085C204.795 269.65 204.918 269.149 205.055 268.675C206.124 264.872 206.671 260.655 208 256.358C208.656 254.151 209.648 252.065 210.939 250.176C212.355 248.245 214.125 246.617 216.151 245.385C220.25 242.838 225.032 241.468 229.58 239.33C231.843 238.336 233.938 236.983 235.79 235.32C237.537 233.659 238.876 231.598 239.699 229.305C240.457 227.048 240.964 224.71 241.211 222.335C241.504 220.023 241.699 217.744 241.999 215.532C242.253 213.36 242.711 211.218 243.367 209.136C244.039 207.177 245.062 205.364 246.384 203.79C247.677 202.386 249.158 201.178 250.782 200.201C252.32 199.239 253.851 198.41 255.271 197.575C256.639 196.788 257.946 195.894 259.181 194.902C260.262 194.009 261.24 192.991 262.093 191.868C263.461 190.063 264.513 188.028 265.201 185.853C265.645 184.48 265.932 183.058 266.055 181.616C266.107 181.121 266.107 180.747 266.126 180.487C266.146 180.226 266.159 180.126 266.159 180.126Z" fill="#455A64"/>
<path d="M268.479 188.038C268.526 188.149 268.568 188.263 268.603 188.379C268.72 188.71 268.814 189.049 268.883 189.394C269.135 190.737 269.111 192.119 268.811 193.451C268.343 195.561 267.419 197.537 266.107 199.232C264.332 201.423 262.319 203.398 260.106 205.119C257.741 207.124 255.05 209.27 252.985 212.304C251.915 213.861 251.166 215.625 250.782 217.49C250.422 219.475 250.205 221.486 250.131 223.504C250.054 225.65 249.763 227.781 249.264 229.866C248.717 232.039 247.919 234.137 246.886 236.115C244.711 240.292 241.559 243.849 237.712 246.467C233.731 249.14 229.241 250.423 225.3 252.435C223.346 253.377 221.548 254.626 219.97 256.137C218.505 257.633 217.321 259.394 216.477 261.33C214.803 265.112 214.112 269.048 213.18 272.63C212.748 274.372 212.217 276.085 211.591 277.763C210.994 279.306 210.231 280.777 209.317 282.147C208.47 283.378 207.481 284.5 206.372 285.488C205.863 285.976 205.31 286.377 204.795 286.792C204.28 287.206 203.733 287.547 203.185 287.841C201.365 288.936 199.385 289.726 197.321 290.18C196.025 290.457 194.704 290.598 193.379 290.601L192.35 290.547H193.379C194.695 290.511 196.004 290.348 197.289 290.06C199.322 289.583 201.27 288.782 203.062 287.687C203.596 287.393 204.098 287.019 204.638 286.638C205.179 286.257 205.694 285.823 206.196 285.335C207.286 284.343 208.258 283.221 209.089 281.993C209.984 280.633 210.731 279.177 211.317 277.649C211.931 275.979 212.451 274.275 212.874 272.544C213.799 268.975 214.471 265.019 216.132 261.183C216.987 259.208 218.188 257.412 219.677 255.883C221.279 254.346 223.106 253.077 225.091 252.12C229.066 250.082 233.561 248.779 237.471 246.166C243.114 242.327 247.183 236.492 248.899 229.773C249.393 227.707 249.683 225.596 249.766 223.471C249.831 221.432 250.049 219.401 250.417 217.396C250.811 215.495 251.578 213.696 252.672 212.11C254.783 209.042 257.506 206.89 259.878 204.906C262.118 203.216 264.162 201.27 265.97 199.105C267.279 197.44 268.212 195.497 268.7 193.418C269.002 192.103 269.047 190.74 268.831 189.408C268.642 188.499 268.453 188.045 268.479 188.038Z" fill="#455A64"/>
<path d="M184.557 127.504C184.557 127.504 189.919 165.436 198.168 169.119C202.325 170.983 205.667 169.379 207.941 165.109C210.215 160.838 216.021 129.81 216.021 129.81L199.973 129.422L199.373 135.59L193.183 123.781L184.557 127.504Z" fill="#936760"/>
<path d="M208.216 152.271C208.184 152.165 208.138 152.064 208.079 151.971L207.642 151.142L206.027 148.101C204.645 145.535 202.769 141.98 200.677 138.043C198.586 134.107 196.768 130.558 195.419 127.932L193.829 124.865L193.393 124.036C193.288 123.849 193.23 123.749 193.217 123.755C193.246 123.861 193.285 123.964 193.334 124.063L193.725 124.918C194.07 125.66 194.579 126.722 195.224 128.039C196.527 130.659 198.332 134.254 200.436 138.19C202.541 142.127 204.437 145.669 205.864 148.215C206.58 149.484 207.167 150.5 207.59 151.202L208.079 152.004C208.116 152.097 208.162 152.187 208.216 152.271Z" fill="#6F4C47"/>
<path d="M264.139 136.372L259.559 157.39L261.729 171.498H211.389L214.679 105.651L227.228 104.555L257.891 109.868L264.139 136.372Z" fill="#C01A86"/>
<path d="M251.336 109.486C251.336 109.486 264.445 108.25 270.694 117.399C274.519 122.999 279.881 135.864 279.881 135.864L262.426 138.958L251.336 109.486Z" fill="#C01A86"/>
<g opacity="0.3">
<path d="M259.285 136.62C258.399 134.761 257.016 133.198 255.297 132.115C253.578 131.031 251.595 130.47 249.577 130.498C248.704 130.498 247.72 130.739 247.258 131.494C246.795 132.249 247.049 133.332 247.388 134.207C247.824 135.35 248.404 136.56 249.473 137.108C250.255 137.509 251.173 137.489 252.014 137.776C253.017 138.171 253.934 138.766 254.711 139.527C255.409 140.06 256.011 140.714 256.49 141.458C256.812 142.09 257.045 142.765 257.181 143.463C258.034 146.898 258.712 153.989 259.559 157.424L260.497 154.463C260.523 151.639 260.547 148.814 260.569 145.989C260.595 142.782 260.595 139.494 259.285 136.62Z" fill="black"/>
</g>
<path d="M243.635 154.142C243.635 154.089 244.286 154.209 245.42 154.296C246.851 154.412 248.29 154.376 249.714 154.189C251.138 153.993 252.54 153.651 253.897 153.167C254.939 152.792 255.565 152.498 255.584 152.545C255.46 152.651 255.322 152.739 255.174 152.806C254.785 153.018 254.385 153.207 253.975 153.374C251.255 154.483 248.307 154.878 245.401 154.523C244.962 154.471 244.527 154.393 244.097 154.289C243.936 154.268 243.78 154.218 243.635 154.142Z" fill="#263238"/>
<path d="M221.664 155.064C221.664 154.984 228.831 157.069 237.569 159.743C246.306 162.416 253.421 164.608 253.395 164.695C253.369 164.781 246.228 162.69 237.484 160.017C228.74 157.343 221.664 155.151 221.664 155.064Z" fill="#263238"/>
<g opacity="0.3">
<path d="M243.992 154.231C244.634 155.207 245.524 155.985 246.565 156.481C247.607 156.977 248.76 157.171 249.902 157.044C250.992 156.919 252.023 156.474 252.872 155.763C253.722 155.052 254.353 154.104 254.691 153.034C251.287 154.382 247.599 154.794 243.992 154.231Z" fill="black"/>
</g>
<g opacity="0.3">
<path d="M251.486 164.026L251.304 164.099C246.808 164.921 242.592 164.099 238.272 162.522C233.952 160.945 229.952 158.686 225.971 156.394L251.486 164.026Z" fill="black"/>
</g>
<path d="M214.678 105.651C214.678 105.651 206.377 106.694 203.158 113.965C200.946 119.151 199.074 124.482 197.555 129.924L214.495 133.833C214.495 133.833 217.16 119.131 217.362 113.965C217.59 108.291 217.812 105.484 214.678 105.651Z" fill="#C01A86"/>
<path d="M213.081 136.158C212.931 134.539 212.883 132.912 212.938 131.287C212.891 129.663 212.945 128.038 213.101 126.421C213.251 128.038 213.299 129.663 213.244 131.287C213.291 132.912 213.237 134.54 213.081 136.158Z" fill="#263238"/>
<path d="M222.275 59.0645C226.751 53.4508 232.772 50.2163 239.867 50.096C243.855 50.0292 245.51 50.8779 248.383 51.6732C251.255 52.3856 253.792 54.1099 255.55 56.545C257.59 59.5122 259.303 62.8337 259.688 66.4358C260.079 70.1448 260.476 73.8739 260.203 77.5896C259.929 81.3053 258.952 85.0411 256.815 88.0617L247.595 89.7057C242.5 89.8795 237.339 90.0533 232.381 88.8637C227.422 87.6741 222.607 84.9341 219.949 80.4766C216.261 74.2815 217.792 64.6848 222.275 59.0645Z" fill="#263238"/>
<path d="M254.02 93.3808C254.02 93.3808 254.169 93.6147 254.573 93.8753C255.148 94.2416 255.796 94.47 256.469 94.5436C257.485 94.6589 258.51 94.4463 259.401 93.9354C260.484 93.263 261.273 92.1884 261.603 90.935C261.933 89.6815 261.779 88.3459 261.174 87.2057C260.655 86.3053 259.877 85.5929 258.945 85.1674C258.332 84.883 257.664 84.7415 256.991 84.7531C256.744 84.7354 256.497 84.7837 256.274 84.8934C257.146 84.9292 258.004 85.1333 258.802 85.4949C259.623 85.933 260.302 86.6063 260.757 87.4329C261.258 88.4607 261.374 89.642 261.08 90.7513C260.787 91.8607 260.106 92.8204 259.167 93.4476C258.38 93.9244 257.474 94.1565 256.561 94.1159C255.675 94.0424 254.812 93.7927 254.02 93.3808Z" fill="#E0E0E0"/>
<path d="M213.335 86.5112C213.423 85.4348 213.75 84.3934 214.291 83.4667C214.832 82.54 215.573 81.7526 216.456 81.1648C217.354 80.607 218.402 80.3562 219.447 80.4487C220.493 80.5412 221.483 80.9722 222.275 81.6794L223.728 83.4504C224.85 83.9852 225.783 84.8651 226.396 85.968C227.009 87.0709 227.272 88.3422 227.149 89.6054C226.98 90.8642 226.465 92.0477 225.664 93.0171C224.864 93.9865 223.81 94.7017 222.627 95.0787C221.436 95.422 220.178 95.4457 218.976 95.1472C217.773 94.8488 216.666 94.2384 215.759 93.3745C214.873 92.4951 214.194 91.4197 213.774 90.2303C213.354 89.0409 213.204 87.7689 213.335 86.5112Z" fill="#263238"/>
<path d="M215.149 92.8867C214.794 92.3276 214.621 91.6681 214.654 91.0021C214.732 89.7925 215.585 88.2086 216.758 86.7584C217.789 85.5123 219.043 84.4802 220.452 83.7177C221.534 83.1229 222.277 82.9091 222.251 82.8289C221.566 82.8872 220.901 83.0897 220.296 83.4236C218.788 84.1214 217.451 85.1584 216.387 86.4577C215.796 87.1653 215.294 87.9467 214.895 88.7834C214.534 89.4643 214.331 90.2212 214.302 90.9954C214.288 91.5255 214.431 92.0473 214.712 92.4924C214.973 92.7998 215.149 92.9067 215.149 92.8867Z" fill="#455A64"/>
<path d="M219.623 95.6798C219.773 95.6798 219.147 92.8128 220.033 89.4313C220.92 86.0497 222.783 83.8711 222.64 83.7842C222.152 84.1703 221.739 84.6462 221.421 85.1876C220.576 86.443 219.952 87.8409 219.577 89.3176C219.202 90.7929 219.079 92.3236 219.213 93.842C219.239 94.4751 219.379 95.0978 219.623 95.6798Z" fill="#455A64"/>
<path d="M247.595 105.043C247.536 101.702 247.458 99.0284 247.458 99.0284C247.458 99.0284 254.977 98.1797 257.049 88.3023C258.085 83.3903 258.274 75.2438 258.222 68.5809C258.176 62.5663 253.192 54.4131 245.972 54.3864L242.76 53.9988L230.472 59.011C229.614 59.0524 228.803 59.4231 228.199 60.0496C227.596 60.676 227.244 61.5124 227.214 62.3925L226.875 104.589L238.753 134.167L247.275 122.318L247.595 105.043Z" fill="#936760"/>
<path d="M242.605 85.9836C242.677 85.4776 242.927 85.0162 243.309 84.6871C243.658 84.3788 244.097 84.1968 244.557 84.169C245.018 84.1412 245.474 84.2693 245.856 84.5334C246.253 84.8462 246.561 85.2622 246.747 85.7382C246.934 86.2141 246.993 86.7327 246.919 87.24C246.708 87.5441 246.436 87.7982 246.121 87.9851C245.806 88.1719 245.456 88.287 245.094 88.3226C244.979 88.3294 244.864 88.3294 244.749 88.3226C244.175 88.3198 243.624 88.0955 243.205 87.6944C242.985 87.4742 242.817 87.2059 242.714 86.9096C242.61 86.6133 242.573 86.2967 242.605 85.9836Z" fill="#6F4C47"/>
<path d="M253.447 75.397C253.433 75.7309 253.292 76.046 253.055 76.2746C252.817 76.5033 252.502 76.6273 252.176 76.62C252.017 76.6245 251.858 76.5961 251.71 76.5367C251.561 76.4772 251.426 76.3878 251.312 76.2738C251.198 76.1598 251.107 76.0235 251.045 75.8729C250.983 75.7223 250.951 75.5605 250.951 75.397C250.966 75.0637 251.108 74.7497 251.345 74.5214C251.582 74.293 251.896 74.1685 252.222 74.174C252.381 74.1696 252.54 74.1979 252.688 74.2574C252.836 74.3168 252.972 74.4062 253.086 74.5202C253.2 74.6342 253.291 74.7706 253.353 74.9212C253.415 75.0718 253.447 75.2336 253.447 75.397Z" fill="#263238"/>
<path d="M255.831 72.2766C255.668 72.4303 254.763 71.6617 253.42 71.6083C252.078 71.5548 251.062 72.1696 250.925 71.9959C250.788 71.8221 251.029 71.6216 251.472 71.3276C252.077 70.95 252.779 70.7705 253.486 70.813C254.184 70.8516 254.852 71.116 255.395 71.5682C255.786 71.8956 255.909 72.2031 255.831 72.2766Z" fill="#263238"/>
<path d="M247.407 82.6954C248.124 82.5054 248.862 82.4111 249.603 82.4147C249.948 82.4147 250.254 82.3478 250.346 82.1073C250.397 81.748 250.338 81.3812 250.176 81.058C249.896 80.1893 249.609 79.2737 249.303 78.3247C248.104 74.4353 247.251 71.2475 247.407 71.2007C247.564 71.1539 248.658 74.2615 249.857 78.151C250.144 79.1066 250.424 80.0222 250.685 80.8977C250.879 81.3313 250.916 81.8219 250.789 82.281C250.734 82.4035 250.652 82.5109 250.549 82.5945C250.445 82.6781 250.325 82.7356 250.196 82.7622C250.004 82.8078 249.806 82.8258 249.609 82.8157C248.873 82.8735 248.133 82.833 247.407 82.6954Z" fill="#263238"/>
<path d="M247.46 99.0216C242.88 98.8362 238.442 97.3509 234.637 94.7312C234.637 94.7312 237.732 101.835 247.512 101.448L247.46 99.0216Z" fill="#6F4C47"/>
<path d="M243.406 83.4242C243.627 83.4242 243.549 84.9145 244.709 86.0439C245.869 87.1733 247.459 87.0998 247.459 87.307C247.459 87.4005 247.1 87.581 246.442 87.5609C245.588 87.5241 244.775 87.1811 244.142 86.5919C243.539 86.0233 243.173 85.2383 243.119 84.3999C243.126 83.7717 243.308 83.4108 243.406 83.4242Z" fill="#263238"/>
<path d="M255.545 67.09C255.304 67.4108 254.287 67.1301 253.082 67.1636C251.877 67.197 250.867 67.4643 250.619 67.1636C250.508 67.0098 250.658 66.6891 251.088 66.375C251.68 65.9812 252.371 65.7744 253.075 65.7802C253.776 65.7556 254.468 65.9465 255.063 66.3282C255.545 66.6156 255.669 66.9296 255.545 67.09Z" fill="#263238"/>
<path d="M237.841 75.0366C237.825 75.3741 237.941 75.7044 238.162 75.9549C238.383 76.2055 238.692 76.3559 239.021 76.3732C239.179 76.3878 239.338 76.3702 239.489 76.3212C239.641 76.2722 239.781 76.1928 239.902 76.0878C240.024 75.9827 240.123 75.854 240.196 75.7091C240.268 75.5642 240.311 75.4061 240.324 75.2438C240.34 74.9063 240.225 74.576 240.003 74.3255C239.782 74.0749 239.473 73.9245 239.144 73.9072C238.986 73.8916 238.827 73.9087 238.675 73.9573C238.523 74.006 238.382 74.0852 238.261 74.1905C238.14 74.2957 238.04 74.4247 237.968 74.5701C237.896 74.7154 237.853 74.874 237.841 75.0366Z" fill="#263238"/>
<path d="M237.458 71.7818C237.608 71.9489 238.565 71.2472 239.908 71.2739C241.25 71.3007 242.221 72.009 242.371 71.842C242.52 71.6749 242.292 71.4677 241.869 71.1737C241.299 70.7509 240.617 70.5177 239.914 70.5054C239.216 70.4879 238.531 70.7011 237.96 71.1135C237.523 71.4076 237.38 71.7016 237.458 71.7818Z" fill="#263238"/>
<path d="M236.681 68.8209C236.942 69.1417 237.985 68.8209 239.229 68.8209C240.474 68.8209 241.529 69.0749 241.777 68.7474C241.881 68.5937 241.725 68.2796 241.269 67.9722C240.643 67.5966 239.928 67.4069 239.203 67.4242C238.483 67.4186 237.776 67.6225 237.164 68.0123C236.721 68.3464 236.571 68.6672 236.681 68.8209Z" fill="#263238"/>
<path d="M228.896 79.1402C228.935 78.3917 228.192 76.6007 227.482 76.467C225.593 76.0593 222.139 76.0192 221.846 80.9913C221.436 87.7812 228.166 86.7988 228.192 86.605C228.218 86.4112 228.766 81.6997 228.896 79.1402Z" fill="#936760"/>
<path d="M226.517 83.9846C226.485 83.9846 226.393 84.0581 226.191 84.1383C225.911 84.24 225.603 84.228 225.331 84.1048C224.647 83.7974 224.126 82.6146 224.165 81.3916C224.183 80.8071 224.328 80.2342 224.588 79.7142C224.662 79.5049 224.785 79.3177 224.946 79.1695C225.108 79.0213 225.303 78.9168 225.514 78.8654C225.647 78.8387 225.785 78.8608 225.904 78.928C226.024 78.9952 226.116 79.1031 226.165 79.233C226.243 79.4268 226.198 79.5604 226.23 79.5738C226.263 79.5872 226.38 79.4669 226.341 79.1862C226.316 79.0155 226.233 78.8593 226.107 78.7451C226.019 78.6646 225.915 78.604 225.803 78.5671C225.691 78.5303 225.572 78.5181 225.455 78.5313C225.179 78.5681 224.918 78.6772 224.695 78.8481C224.472 79.019 224.297 79.246 224.184 79.507C223.869 80.077 223.693 80.7166 223.67 81.3715C223.631 82.7482 224.237 84.0447 225.181 84.4123C225.355 84.4763 225.541 84.4993 225.725 84.4797C225.909 84.46 226.086 84.3981 226.243 84.2987C226.491 84.1583 226.537 83.9979 226.517 83.9846Z" fill="#6F4C47"/>
<path d="M227.209 76.4602L228.896 78.2512C236.161 71.1205 250.365 53.257 249.57 54.3196C246.259 53.0515 242.691 52.654 239.191 53.1634C233.783 54.1057 223.553 56.8792 223.697 63.4217C223.84 69.9643 227.209 76.4602 227.209 76.4602Z" fill="#263238"/>
<path d="M227.365 93.3809C227.365 93.3809 227.215 93.6148 226.818 93.8755C226.241 94.2427 225.59 94.4712 224.915 94.5438C223.902 94.659 222.879 94.4463 221.99 93.9356C220.907 93.2631 220.118 92.189 219.787 90.9359C219.456 89.6829 219.607 88.3472 220.211 87.2059C220.731 86.3051 221.512 85.5927 222.446 85.1676C223.059 84.8819 223.727 84.7403 224.4 84.7533C224.649 84.7379 224.898 84.7862 225.124 84.8936C224.254 84.9395 223.401 85.1526 222.609 85.5218C221.788 85.9606 221.109 86.6337 220.654 87.4599C220.152 88.4876 220.037 89.6689 220.33 90.7782C220.623 91.8876 221.305 92.8474 222.244 93.4745C223.043 93.9571 223.963 94.1894 224.889 94.1428C225.754 94.0543 226.595 93.7957 227.365 93.3809Z" fill="#E0E0E0"/>
<path d="M217.584 74.9631C217.607 74.8287 217.642 74.6967 217.688 74.5688C217.808 74.2 217.959 73.8423 218.138 73.4995C218.823 72.2406 219.768 71.1503 220.907 70.3051C222.597 69.0678 224.481 68.1366 226.478 67.5517C228.693 66.8166 231.195 66.2151 233.645 65.1592C235.951 64.1694 238.137 62.909 240.161 61.4034C241.819 60.1682 243.366 58.7814 244.78 57.26C245.73 56.2298 246.622 55.1455 247.452 54.0121L248.103 53.0698C248.184 52.9538 248.276 52.8464 248.377 52.749C248.331 52.8757 248.267 52.995 248.188 53.1032C248.045 53.3304 247.849 53.6646 247.536 54.0789C246.746 55.2549 245.875 56.3716 244.93 57.4204C243.53 58.9782 241.987 60.3948 240.324 61.6507C238.28 63.1906 236.064 64.4739 233.723 65.4733C231.377 66.3955 228.984 67.1897 226.556 67.8525C224.584 68.4124 222.717 69.3044 221.031 70.4922C219.904 71.307 218.952 72.3512 218.236 73.5597C217.753 74.4351 217.623 74.9765 217.584 74.9631Z" fill="#455A64"/>
<path d="M219.514 76.0327C219.497 75.5248 219.586 75.019 219.774 74.5491C220.272 73.2499 221.139 72.1344 222.263 71.3479C223.645 70.292 225.619 69.6371 227.789 69.1292C230.151 68.6457 232.455 67.8949 234.656 66.8904C236.845 65.862 238.903 64.5601 240.781 63.0143C242.311 61.7481 243.716 60.3312 244.977 58.784C245.823 57.735 246.605 56.6323 247.316 55.4826L247.876 54.5337C247.937 54.4195 248.009 54.312 248.091 54.2129C248.058 54.3386 248.005 54.4581 247.935 54.5671C247.805 54.8277 247.635 55.1552 247.427 55.5562C246.754 56.7396 245.996 57.87 245.159 58.9377C242.379 62.4829 238.832 65.3154 234.799 67.2112C232.578 68.2295 230.249 68.9829 227.86 69.4567C225.691 69.9512 223.762 70.566 222.4 71.5685C221.297 72.3159 220.429 73.3741 219.898 74.6159C219.727 75.0749 219.599 75.5492 219.514 76.0327Z" fill="#455A64"/>
<path d="M185.227 131.206C184.856 131.066 184.367 125.66 184.367 125.66C184.367 125.66 179.096 121.336 178.379 119.578C177.663 117.821 177.767 113.63 177.767 113.63L186.4 107.616C186.4 107.616 191.502 112.294 192.838 114.138C193.587 115.167 194.141 118.008 194.532 120.307C194.844 122.261 194.917 124.248 194.747 126.221L194.623 127.745C194.623 127.745 191.15 133.465 185.227 131.206Z" fill="#936760"/>
<path d="M178.777 120.641C178.157 120.075 177.567 119.475 177.011 118.843C175.891 117.6 174.646 116.437 175.708 115.121C175.868 114.903 176.071 114.723 176.303 114.591C176.536 114.46 176.793 114.381 177.057 114.359C177.057 114.359 176.406 113.203 176.972 112.474C177.132 112.259 177.34 112.086 177.578 111.97C177.816 111.854 178.077 111.797 178.341 111.806C178.341 111.806 177.5 110.148 178.276 109.032C178.571 108.625 178.972 108.31 179.432 108.124C179.892 107.937 180.395 107.886 180.882 107.976C180.882 107.976 177.383 100.665 177.174 100.291C176.393 98.9077 176.464 97.3974 178.028 97.2303C178.601 97.1702 179.097 97.6313 180.582 99.9035C182.068 102.176 184.557 106.018 184.557 106.018C184.557 106.018 187.274 108.377 188.635 109.701C189.997 111.024 192.845 114.125 193.32 115.047C194.539 117.446 194.278 121.309 194.278 121.309L184.374 125.66C184.374 125.66 179.416 121.222 178.777 120.641Z" fill="#936760"/>
<path d="M177.356 114.613C177.767 114.861 178.159 115.14 178.529 115.448L179.773 116.397C180.025 116.583 180.261 116.791 180.477 117.018C180.731 117.271 180.895 117.602 180.946 117.961C180.979 118.146 180.962 118.337 180.898 118.513C180.834 118.69 180.724 118.845 180.581 118.963C180.304 119.16 179.963 119.239 179.63 119.184C179.352 119.154 179.077 119.095 178.809 119.01C178.555 118.936 178.327 118.863 178.112 118.789C177.695 118.649 177.356 118.522 177.128 118.422C176.9 118.322 176.783 118.261 176.789 118.241C176.796 118.221 177.317 118.395 178.158 118.636C178.645 118.79 179.144 118.904 179.65 118.977C179.928 119.011 180.209 118.945 180.445 118.789C180.555 118.692 180.639 118.567 180.688 118.426C180.737 118.286 180.75 118.135 180.725 117.987C180.675 117.678 180.532 117.393 180.314 117.172C180.114 116.951 179.896 116.747 179.663 116.564L178.444 115.568C178.055 115.283 177.691 114.963 177.356 114.613Z" fill="#6F4C47"/>
<path d="M185.977 112.448C185.696 111.936 185.538 111.363 185.515 110.777C185.416 110.2 185.449 109.607 185.612 109.046C185.684 109.046 185.612 109.821 185.736 110.757C185.86 111.692 186.042 112.427 185.977 112.448Z" fill="#6F4C47"/>
<path d="M190.772 113.19C189.512 112.612 188.116 112.419 186.752 112.635C185.393 112.85 184.074 113.279 182.842 113.905C181.852 114.386 180.77 115.094 180.633 116.211C180.497 117.327 181.52 118.396 182.627 118.616C183.754 118.745 184.893 118.511 185.885 117.948C186.87 117.371 187.92 116.922 189.013 116.611" fill="#936760"/>
<path d="M189.026 116.645C189.026 116.645 188.732 116.718 188.218 116.919C187.504 117.218 186.806 117.555 186.126 117.928C185.647 118.181 185.148 118.391 184.634 118.556C184.036 118.758 183.402 118.824 182.777 118.75C182.068 118.655 181.423 118.281 180.979 117.707C180.737 117.406 180.579 117.044 180.523 116.658C180.481 116.254 180.558 115.847 180.744 115.489C181.148 114.834 181.73 114.316 182.419 113.998C183.028 113.685 183.654 113.408 184.295 113.17C185.382 112.752 186.53 112.526 187.69 112.501C188.471 112.482 189.249 112.602 189.99 112.856C190.193 112.924 190.391 113.007 190.583 113.103C190.649 113.134 190.713 113.172 190.772 113.216C190.772 113.216 190.492 113.096 189.964 112.942C189.224 112.73 188.457 112.638 187.69 112.668C186.551 112.722 185.428 112.968 184.367 113.397C183.736 113.634 183.121 113.911 182.523 114.226C181.875 114.526 181.327 115.014 180.946 115.629C180.777 115.94 180.708 116.298 180.751 116.651C180.798 116.997 180.935 117.322 181.148 117.594C181.56 118.122 182.151 118.471 182.803 118.569C183.401 118.641 184.007 118.584 184.582 118.402C185.09 118.246 185.585 118.047 186.061 117.808C186.752 117.447 187.463 117.13 188.192 116.859C188.392 116.791 188.597 116.737 188.804 116.698C188.875 116.67 188.95 116.652 189.026 116.645Z" fill="#6F4C47"/>
<path d="M177.48 114.706C179.129 115.969 180.738 117.446 182.224 118.87C182.63 119.327 183.147 119.666 183.722 119.852C184.185 119.952 184.986 119.184 185.358 118.85L180.035 113.116" fill="#936760"/>
<path d="M180.035 113.116C180.197 113.234 180.345 113.371 180.478 113.523L181.624 114.713C182.595 115.729 183.937 117.152 185.443 118.769L185.521 118.856L185.43 118.937C185.145 119.198 184.847 119.444 184.537 119.672C184.403 119.763 184.261 119.841 184.113 119.906C184.034 119.939 183.951 119.959 183.866 119.966C183.78 119.984 183.691 119.984 183.605 119.966C183.31 119.876 183.034 119.731 182.791 119.538C182.315 119.164 181.937 118.756 181.54 118.395C180.758 117.66 180.054 117.005 179.455 116.464C178.855 115.923 178.354 115.495 178.008 115.201C177.823 115.057 177.646 114.9 177.48 114.733C177.687 114.845 177.882 114.979 178.06 115.134C178.425 115.401 178.94 115.802 179.552 116.337C180.165 116.872 180.895 117.506 181.677 118.242C182.074 118.596 182.471 119.01 182.921 119.358C183.143 119.534 183.395 119.665 183.664 119.745C183.797 119.761 183.932 119.748 184.06 119.706C184.188 119.665 184.306 119.596 184.407 119.505C184.712 119.283 185.006 119.044 185.286 118.79V118.91C183.781 117.286 182.465 115.842 181.52 114.8L180.419 113.563C180.282 113.422 180.154 113.273 180.035 113.116Z" fill="#6F4C47"/>
<path d="M178.535 111.378L183.904 117.58C184.259 118.043 184.689 118.441 185.175 118.756C185.418 118.912 185.696 119.003 185.982 119.022C186.269 119.041 186.556 118.986 186.817 118.863C187.141 118.633 187.381 118.298 187.499 117.912C187.617 117.525 187.606 117.11 187.468 116.731C187.178 115.975 186.734 115.291 186.165 114.726C184.545 112.841 183.07 110.83 181.754 108.711" fill="#936760"/>
<path d="M181.767 108.692C181.767 108.692 181.826 108.752 181.917 108.885L182.308 109.467C182.653 109.968 183.148 110.69 183.787 111.565C184.425 112.441 185.227 113.45 186.152 114.539C186.676 115.085 187.115 115.709 187.455 116.39C187.625 116.775 187.691 117.2 187.644 117.62C187.61 118.064 187.415 118.479 187.097 118.783C186.93 118.928 186.735 119.033 186.524 119.092C186.314 119.151 186.093 119.162 185.878 119.124C185.471 119.062 185.087 118.891 184.764 118.629C184.206 118.123 183.69 117.571 183.22 116.978L180.75 114.085C180.066 113.276 179.513 112.608 179.102 112.12L178.659 111.559C178.604 111.498 178.555 111.431 178.516 111.358C178.516 111.358 178.581 111.412 178.692 111.525L179.167 112.04L180.868 113.958L183.376 116.818C183.842 117.395 184.352 117.934 184.901 118.429C185.194 118.666 185.542 118.82 185.911 118.876C186.095 118.908 186.283 118.898 186.463 118.849C186.642 118.799 186.81 118.711 186.953 118.589C187.228 118.323 187.396 117.96 187.423 117.573C187.465 117.195 187.406 116.811 187.253 116.464C186.91 115.798 186.471 115.19 185.95 114.66C185.025 113.564 184.243 112.528 183.617 111.639C182.992 110.75 182.51 110.015 182.19 109.494C182.034 109.233 181.91 109.032 181.832 108.892C181.803 108.828 181.782 108.761 181.767 108.692Z" fill="#6F4C47"/>
<path d="M189.958 122.919C189.757 123.028 189.532 123.076 189.306 123.06C188.777 123.089 188.249 122.993 187.762 122.779C187.265 122.574 186.819 122.256 186.459 121.85C186.301 121.692 186.183 121.497 186.113 121.282C186.581 121.841 187.17 122.281 187.833 122.565C188.496 122.849 189.215 122.971 189.931 122.919H189.958Z" fill="#6F4C47"/>
<path d="M258.236 105.437L256.359 129.723C256.328 130.138 256.137 130.524 255.83 130.797C255.523 131.07 255.123 131.207 254.717 131.18L241.523 130.271C241.317 130.258 241.115 130.203 240.93 130.109C240.745 130.015 240.58 129.883 240.446 129.722C240.312 129.561 240.21 129.374 240.148 129.172C240.086 128.97 240.064 128.758 240.083 128.547L242.24 104.281C242.275 103.869 242.465 103.487 242.771 103.218C243.077 102.948 243.473 102.811 243.875 102.837L256.796 103.699C257.003 103.714 257.205 103.77 257.39 103.866C257.575 103.962 257.739 104.094 257.874 104.256C258.008 104.418 258.109 104.606 258.171 104.809C258.233 105.012 258.255 105.225 258.236 105.437Z" fill="#455A64"/>
<path d="M277.125 136.353C277.125 136.353 281.067 163.673 280.91 167.342C280.754 171.011 276.708 179.157 271.261 179.952C265.814 180.748 260.679 175.642 260.523 168.939C260.367 162.236 259.559 141.038 259.559 141.038L263.624 138.739L277.125 136.353Z" fill="#936760"/>
<path d="M254.679 113.778C254.679 113.778 258.758 116.351 259.963 117.025C261.168 117.7 261.012 122.686 261.012 122.686L267.88 139.059L259.605 142.1C259.605 142.1 256.653 136.373 255.806 135.651C255.226 135.183 254.562 134.838 253.851 134.635C253.851 134.635 253.428 136.226 252.157 135.504C251.149 134.821 250.245 133.991 249.473 133.038C249.473 133.038 248.339 133.766 247.916 132.897C247.492 132.029 246.788 130.144 246.788 130.144C246.788 130.144 249.186 126.956 250.177 126.956C251.167 126.956 256.249 127.244 256.249 127.244C256.249 127.244 255.969 126.809 254.555 126.235C253.141 125.66 244.736 123.114 244.338 122.96C243.746 122.726 243.081 121.142 244.918 120.995C246.756 120.848 257.096 122.746 257.096 122.746C257.096 122.746 257.663 120.006 257.239 119.405C256.816 118.803 253.122 116.384 254.679 113.778Z" fill="#936760"/>
<path d="M249.439 132.944C249.367 132.55 249.379 132.144 249.472 131.755C249.561 131.301 249.789 130.889 250.123 130.578C250.564 130.251 251.099 130.087 251.642 130.111C252.57 130.049 253.502 130.083 254.424 130.211C254.809 130.236 255.188 130.327 255.544 130.478C255.544 130.578 253.798 130.278 251.635 130.425C251.156 130.4 250.682 130.531 250.28 130.799C249.988 131.067 249.781 131.418 249.687 131.808C249.624 132.191 249.541 132.57 249.439 132.944Z" fill="#6F4C47"/>
<path d="M251.082 133.432C251.623 133.659 252.151 133.916 252.665 134.201C253.222 134.388 253.766 134.611 254.294 134.869C253.686 134.911 253.079 134.776 252.542 134.482C251.965 134.287 251.457 133.922 251.082 133.432Z" fill="#6F4C47"/>
<path d="M256.607 122.686C257.156 122.771 257.666 123.03 258.066 123.426C258.465 123.823 258.734 124.337 258.835 124.898C258.75 124.898 258.47 124.23 257.851 123.655C257.232 123.08 256.574 122.773 256.607 122.686Z" fill="#6F4C47"/>
<path d="M186.101 268.888C186.01 268.888 189.568 253.518 194.05 234.618C198.533 215.719 202.234 200.442 202.325 200.442C202.417 200.442 198.859 215.812 194.376 234.718C189.893 253.624 186.193 268.908 186.101 268.888Z" fill="#455A64"/>
<path d="M283.606 291.196C283.606 291.289 221.447 291.369 144.783 291.369C68.1202 291.369 5.94141 291.289 5.94141 291.196C5.94141 291.102 68.0942 291.022 144.783 291.022C221.473 291.022 283.606 291.095 283.606 291.196Z" fill="#263238"/>
<path d="M251.244 50.1957L253.159 43.1051C250.623 38.8909 249.716 33.856 250.616 28.9905C251.516 24.125 254.158 19.7807 258.023 16.8119C261.887 13.8431 266.695 12.4644 271.5 12.947C276.306 13.4295 280.761 15.7384 283.991 19.4197C287.221 23.1009 288.991 27.8883 288.954 32.8404C288.916 37.7926 287.074 42.5514 283.79 46.1811C280.505 49.8109 276.015 52.049 271.203 52.4555C266.391 52.8621 261.605 51.4076 257.786 48.378L251.244 50.1957Z" fill="white"/>
<path d="M251.244 50.1962L251.681 50.0625L252.939 49.7016L257.773 48.3116L257.728 48.4386C257.715 48.4239 257.708 48.4048 257.708 48.3851C257.708 48.3654 257.715 48.3463 257.728 48.3316C257.742 48.3221 257.759 48.3171 257.776 48.3171C257.794 48.3171 257.811 48.3221 257.825 48.3316C260.393 50.3534 263.42 51.6733 266.621 52.1676C268.671 52.4906 270.758 52.4635 272.798 52.0875C276.599 51.4106 280.112 49.5751 282.88 46.8202C285.649 44.0654 287.544 40.5189 288.318 36.6432C288.883 33.6832 288.785 30.6303 288.032 27.7148C287.26 24.6698 285.778 21.8627 283.715 19.5346C281.652 17.2064 279.068 15.4269 276.186 14.3489C273.227 13.2344 270.044 12.8862 266.922 13.3351C263.799 13.7841 260.833 15.0164 258.286 16.9228C255.739 18.8291 253.69 21.3506 252.321 24.2637C250.952 27.1768 250.304 30.3914 250.437 33.6225C250.573 36.953 251.532 40.1932 253.225 43.0388C253.232 43.0605 253.232 43.0838 253.225 43.1056C252.574 45.3845 252.098 47.1153 251.759 48.3383C251.596 48.9331 251.466 49.3809 251.375 49.6749C251.284 49.969 251.238 50.1494 251.238 50.1494C251.238 50.1494 251.27 50.0024 251.342 49.7016C251.414 49.4009 251.538 48.9398 251.694 48.3651C252.007 47.1421 252.476 45.3577 253.075 43.0187V43.0855C251.025 39.7049 250.017 35.7684 250.184 31.7908C250.35 27.8132 251.682 23.9796 254.007 20.7913C256.988 16.7086 261.378 13.9498 266.279 13.0801C271.179 12.2103 276.218 13.2955 280.363 16.1132C281.654 17.0115 282.84 18.0611 283.894 19.2408C284.957 20.4353 285.882 21.7517 286.65 23.1637C288.799 27.2981 289.49 32.0668 288.605 36.6632C287.819 40.5981 285.891 44.1971 283.075 46.988C280.259 49.7788 276.685 51.631 272.824 52.3013C270.755 52.6762 268.638 52.6943 266.563 52.3548C263.33 51.8245 260.28 50.4609 257.701 48.3918L257.812 48.2849C257.819 48.2917 257.825 48.3 257.829 48.3092C257.833 48.3184 257.835 48.3283 257.835 48.3383C257.835 48.3483 257.833 48.3582 257.829 48.3674C257.825 48.3766 257.819 48.3849 257.812 48.3918L252.893 49.7284L251.635 50.0759L251.244 50.1962Z" fill="#263238"/>
<path d="M260.959 33.2285L263.213 30.9095L267.566 34.8792L276.108 26.4453L278.206 28.7643L267.247 39.3434L260.959 33.2285Z" fill="#028CCC"/>
</svg>
